<?xml version="1.0" encoding="utf-8"?>
<svg viewBox="0 0 500 500" xmlns="http://www.w3.org/2000/svg">
  <g id="g49" transform="matrix(1, 0, 0, 1, -848.513672, 217.572739)">
    <g id="g3068" transform="matrix(1.418574, 0, 0, 1.418574, 730.509216, -322.051208)" style="">
      <g id="g2187">
        <path class="st1" d="m 137.8,396.6 c -1.8,-5.5 -3.6,-11 -5.5,-16.4 -0.2,-0.2 -0.5,-0.3 -0.9,-0.3 l -0.3,-0.4 0.2,-0.5 c 0,-0.3 -0.1,-0.6 -0.3,-0.8 l -0.7,-0.4 -0.5,0.1 -0.5,0.4 -0.5,0.3 -0.8,1.3 -0.2,-0.1 -0.5,0.1 c -0.6,0.5 -1.1,1.1 -1.5,1.7 l -0.5,-0.2 c -0.3,0 -0.6,0 -0.8,0.2 -2.7,4.4 -5.2,8.9 -7.4,13.6 -2.2,4.6 -4.2,9.4 -6,14.2 v 0.4 c 0.1,0.3 0.3,0.5 0.6,0.6 l -0.8,2.2 c 0,0.3 0,0.6 0.2,0.8 l 0.6,0.3 c 0.3,0 0.5,-0.1 0.7,-0.3 l 0.2,0.1 0.5,0.3 c 0.3,0 0.6,-0.1 0.9,-0.3 h 0.1 l -0.2,1.1 c 0,0.3 0,0.6 0.1,0.8 0.2,0.3 0.5,0.4 0.8,0.4 l -0.1,0.5 0.2,0.7 c 0.3,0.2 0.7,0.4 1.1,0.5 0.4,0.1 0.7,0 1,-0.3 0.7,-2 1.4,-4.1 2.1,-6.1 0.8,-2.1 1.5,-4.2 2.2,-6.2 1.7,-0.4 3.3,-0.9 5,-1.4 1.7,-0.5 3.3,-1 5,-1.5 0.3,-0.3 0.4,-0.6 0.3,-1 h 0.1 0.3 c 0.5,2.8 1.1,5.5 1.6,8.3 0.5,2.8 1.1,5.5 1.8,8.2 l 0.4,0.3 c 0.4,0.1 0.6,0 0.9,-0.2 l 0.3,-0.5 -0.1,-0.8 V 416 l 0.6,-0.2 0.3,-0.5 h 0.1 0.1 c 0,0.6 0.1,1.3 0.4,1.8 0.3,0.2 0.7,0.4 1.1,0.4 0.6,-0.2 1.2,-0.3 1.8,-0.5 l 0.4,-0.5 c 0,-0.4 -0.1,-0.9 -0.3,-1.3 -0.1,-0.4 -0.3,-0.8 -0.4,-1.2 v -0.2 h 0.2 0.6 c 0.3,-0.1 0.5,-0.3 0.6,-0.6 -1.3,-5.5 -2.8,-11.1 -4.6,-16.6 z m -6.5,0.5 c -1.2,0.1 -2.5,0.3 -3.7,0.6 -1.2,0.2 -2.5,0.5 -3.7,0.7 h -0.2 c 0.8,-2.3 1.6,-4.6 2.4,-6.9 0.9,-2.3 1.7,-4.6 2.7,-6.8 h 0.1 l 2.4,12.2 z" id="path2115" style="fill: rgb(124, 253, 160);"/>
        <path class="st1" d="m 170,398 -0.3,0.5 c -0.2,0.2 -0.5,0.3 -0.8,0.3 l -0.5,-0.2 v -0.1 c -1.1,-0.7 -2.2,-1.2 -3.4,-1.6 -1.2,-0.4 -2.5,-0.5 -3.8,-0.5 -0.7,0 -1.4,0.1 -2,0.3 -0.6,0.2 -1.2,0.6 -1.6,1.3 -1.3,1.4 -2.3,3 -3,4.7 -0.7,1.7 -1.1,3.5 -1.1,5.4 0.1,0.8 0.3,1.5 0.8,2.2 0.3,0.3 0.8,0.4 1.2,0.4 h 1.4 c 1.1,-0.5 2.2,-1.1 3.3,-1.7 1.1,-0.6 2.2,-1.1 3.3,-1.6 0.3,0.1 0.5,0.3 0.6,0.6 v 0.5 h 0.4 c 0.5,-0.4 1.2,-0.7 1.8,-0.8 l 0.5,0.3 c 0.3,0.3 0.4,0.7 0.4,1.1 l -0.3,0.5 -0.7,0.5 0.3,0.2 v 0.1 h 0.1 l 0.2,0.7 -0.4,0.6 -0.4,0.3 v 0.5 c 0.1,0.2 0.2,0.5 0.2,0.8 -0.1,0.3 -0.3,0.5 -0.6,0.6 l -0.1,0.6 h 0.1 l 1.6,-0.6 c 0.3,0 0.5,0.2 0.7,0.4 l 0.2,0.7 -0.3,0.5 c -1.7,0.7 -3.4,1.3 -5.2,1.7 -1.7,0.4 -3.5,0.8 -5.3,0.9 h -2 c -1.2,-0.1 -2.3,-0.3 -3.3,-0.7 -1.1,-0.4 -2,-1 -2.9,-1.7 v -0.1 l -0.7,-0.6 c -0.8,-0.8 -1.3,-1.7 -1.6,-2.6 -0.2,-1 -0.4,-2 -0.4,-3.1 0.2,-2.6 1,-5 2.2,-7.4 1.2,-2.3 2.8,-4.4 4.8,-6.2 1.4,-1.3 2.9,-2.3 4.6,-3 1.7,-0.8 3.5,-1.1 5.4,-1.1 0.8,0.1 1.5,0.2 2.1,0.5 0.7,0.3 1.3,0.6 1.9,1.1 0.2,0.5 0.4,1 0.6,1.5 0.2,0.5 0.4,1 0.4,1.6 0.6,0.2 1.2,0.6 1.7,1.1 -0.1,0 0,0.3 -0.1,0.6 z" id="path2117" style="fill: rgb(124, 253, 160);"/>
        <path class="st1" d="m 196.8,398 -0.3,0.5 c -0.2,0.2 -0.5,0.3 -0.8,0.3 l -0.5,-0.2 v -0.1 c -1,-0.7 -2.2,-1.2 -3.4,-1.6 -1.2,-0.4 -2.5,-0.5 -3.8,-0.5 -0.7,0 -1.4,0.1 -2,0.3 -0.6,0.2 -1.2,0.6 -1.6,1.3 -1.3,1.4 -2.3,3 -3,4.7 -0.7,1.7 -1.1,3.5 -1.1,5.4 0.1,0.8 0.3,1.5 0.8,2.2 0.3,0.3 0.8,0.4 1.2,0.4 h 1.4 c 1.1,-0.5 2.2,-1.1 3.3,-1.7 1.1,-0.6 2.2,-1.1 3.3,-1.6 0.3,0.1 0.5,0.3 0.6,0.6 v 0.5 h 0.4 c 0.5,-0.4 1.2,-0.7 1.8,-0.8 l 0.5,0.3 c 0.3,0.3 0.4,0.7 0.4,1.1 l -0.3,0.5 -0.7,0.4 0.3,0.2 v 0.1 h 0.1 l 0.2,0.7 -0.4,0.6 -0.4,0.3 -0.1,0.5 c 0.1,0.2 0.2,0.5 0.2,0.8 -0.1,0.3 -0.3,0.5 -0.6,0.6 l -0.1,0.6 h 0.1 l 1.6,-0.6 c 0.3,0 0.5,0.2 0.7,0.4 l 0.2,0.7 -0.3,0.5 c -1.7,0.7 -3.4,1.3 -5.2,1.7 -1.7,0.4 -3.5,0.8 -5.3,0.9 h -2 c -1.2,-0.1 -2.3,-0.3 -3.3,-0.7 -1.1,-0.4 -2,-1 -2.9,-1.7 v -0.1 l -0.7,-0.6 c -0.8,-0.8 -1.3,-1.7 -1.6,-2.6 -0.2,-1 -0.4,-2 -0.4,-3.1 0.2,-2.6 1,-5 2.2,-7.4 1.2,-2.3 2.8,-4.4 4.8,-6.2 1.4,-1.3 2.9,-2.3 4.6,-3 1.7,-0.8 3.5,-1.1 5.4,-1.1 0.8,0.1 1.5,0.2 2.1,0.5 0.7,0.3 1.3,0.6 1.9,1.1 0.2,0.5 0.4,1 0.6,1.5 0.2,0.5 0.4,1 0.4,1.6 0.6,0.2 1.2,0.6 1.7,1.1 0,0.1 0,0.4 0,0.7 z" id="path2119" style="fill: rgb(124, 253, 160);"/>
        <path class="st1" d="m 228.4,401.1 c 0,-0.5 -0.1,-0.9 -0.4,-1.3 l -0.5,-0.3 c -0.3,0 -0.6,0 -0.8,0.2 h -0.3 l 0.1,-0.3 c 0,-0.3 -0.1,-0.6 -0.3,-0.8 l -0.5,-0.3 0.3,-0.5 c -0.1,-0.9 -0.4,-1.7 -0.8,-2.4 -0.4,-0.8 -0.9,-1.5 -1.5,-2.2 l -0.5,-0.4 v -0.1 c -0.8,-0.6 -1.6,-1.2 -2.5,-1.5 -0.9,-0.4 -1.8,-0.7 -2.8,-0.8 -2,-0.1 -4,0.2 -5.8,0.9 -1.8,0.6 -3.5,1.7 -5,3.1 -2.2,2.2 -3.9,4.6 -5.2,7.3 -1.3,2.7 -2.1,5.5 -2.2,8.5 -0.1,1.3 0,2.5 0.4,3.6 0.4,1.1 0.9,2.2 1.4,3.2 0.9,0.9 1.9,1.5 3.1,1.8 1.2,0.3 2.3,0.6 3.5,0.8 h 2.3 c 1.9,-0.1 3.8,-0.6 5.6,-1.2 1.8,-0.6 3.5,-1.6 5.1,-2.9 l 0.3,-0.5 c 0,-0.3 -0.1,-0.5 -0.3,-0.7 1.9,-1.8 3.4,-3.8 4.6,-6.1 1.2,-2.2 2,-4.6 2.7,-7.1 z m -5.9,-3.2 -0.3,0.1 c -0.3,0.6 -0.5,1.3 -0.7,2.1 l -0.3,0.2 -0.6,1 c -1,1.8 -2.1,3.5 -3.2,5.2 -1.1,1.7 -2.6,3 -4.5,3.9 -0.8,0.4 -1.6,0.8 -2.4,1 -0.8,0.3 -1.7,0.4 -2.5,0.5 -0.9,0 -1.6,-0.1 -2.4,-0.4 l -0.2,-0.9 c -0.1,-1.6 0.2,-3 0.7,-4.5 0.5,-1.4 1.4,-2.7 2.5,-3.8 h 0.1 l 0.9,-1.1 c 1.3,-1.3 2.6,-2.4 4.1,-3.4 1.5,-1 3.1,-1.7 4.9,-1.9 0.4,0 0.7,0.2 1.1,0.4 l 0.9,1.2 0.6,0.3 h 0.4 c 0.3,-0.1 0.4,-0.3 0.5,-0.6 z" id="path2121" style="fill: rgb(124, 253, 160);"/>
        <path class="st1" d="m 273.2,403.6 v 3.2 c -0.1,1.8 -0.3,3.7 -0.6,5.5 -0.3,1.8 -0.6,3.6 -0.9,5.3 -0.4,0.2 -0.8,0.2 -1.2,0.2 h -0.2 l -0.6,0.2 -0.6,-0.4 v -0.1 H 269 l -0.2,0.5 c -0.3,0.2 -0.6,0.3 -1,0.3 -0.3,-0.1 -0.5,-0.3 -0.6,-0.6 v -0.4 -0.2 H 267 l -0.3,0.1 -0.7,-0.4 c -0.2,0.6 -0.4,1.1 -0.8,1.6 -0.2,0.2 -0.5,0.2 -0.8,0.2 l -0.5,-0.3 c -0.2,-0.2 -0.2,-0.5 -0.2,-0.8 v -0.3 c -0.2,-0.1 -0.4,-0.3 -0.5,-0.5 l -0.1,-0.5 c 0.3,-2.1 0.7,-4.1 1,-6.2 0.3,-2.1 0.6,-4.2 0.9,-6.3 -0.1,-0.7 -0.1,-1.4 -0.2,-2.2 0,-0.7 -0.2,-1.4 -0.4,-2 -0.5,-0.4 -1,-0.6 -1.5,-0.8 -0.5,-0.2 -1.1,-0.3 -1.7,-0.3 -0.6,0.3 -1.2,0.6 -1.8,0.9 -0.6,0.3 -1.2,0.7 -1.7,1.1 l -0.5,0.9 v 3.3 c -0.2,2.3 -0.4,4.5 -0.6,6.8 -0.2,2.3 -0.6,4.4 -1.4,6.5 -0.2,0.1 -0.5,0.2 -0.8,0.2 -0.3,-0.1 -0.5,-0.3 -0.7,-0.6 l -0.1,-0.4 c -0.3,0 -0.6,0 -0.9,-0.2 0.1,0.5 0,0.9 -0.4,1.2 -0.2,0.1 -0.5,0.2 -0.8,0.1 l -0.6,-0.5 v -0.3 h 0.1 l -0.3,0.3 -0.3,0.2 -0.4,0.4 -0.5,0.1 -0.6,-0.2 -0.6,0.2 -0.6,-0.4 -0.2,-0.7 c 0.4,-2.9 0.8,-5.7 1.2,-8.5 0.5,-2.9 0.7,-5.8 0.8,-8.7 -0.2,-0.7 -0.4,-1.3 -0.8,-1.8 -0.4,-0.2 -0.8,-0.3 -1.3,-0.4 -0.4,-0.1 -0.9,-0.1 -1.4,0 -0.8,0 -1.4,0.4 -1.9,1.2 -1.5,2.1 -2.3,4.5 -2.4,7.1 0,2.6 -0.2,5.2 -0.4,7.8 v 2.9 l -0.3,0.6 c -0.2,0.2 -0.5,0.2 -0.8,0.2 l -0.5,-0.3 -0.2,-0.5 h -0.1 c -0.2,0.2 -0.5,0.3 -0.9,0.3 -0.3,-0.1 -0.5,-0.3 -0.6,-0.6 v -0.4 h -0.1 l -0.5,0.4 c 0.1,0.6 0,1.2 -0.4,1.6 -0.2,0.1 -0.5,0.2 -0.8,0.1 l -0.6,-0.5 v -1.2 h -0.1 c -0.2,0.2 -0.5,0.2 -0.8,0.2 l -0.8,-0.5 c -0.2,-0.3 -0.3,-0.7 -0.3,-1.1 -0.2,0 -0.4,-0.1 -0.6,-0.4 -0.5,-0.6 -0.7,-1.4 -0.7,-2.3 0.2,-3.4 0.6,-6.8 1.3,-10.1 0.7,-3.4 1.7,-6.6 3.2,-9.7 0.3,-0.2 0.7,-0.3 1.1,-0.3 l 0.6,-1.1 c 0.2,-0.2 0.5,-0.2 0.8,-0.2 l 0.5,0.3 c 0.2,0.2 0.3,0.5 0.3,0.8 v 0.3 0 c 0.2,-0.2 0.5,-0.3 0.8,-0.3 l 0.4,0.1 0.4,-0.1 0.5,0.2 0.4,-0.3 h 0.5 l 0.5,0.3 c 0.2,0.2 0.3,0.5 0.3,0.8 v 0.2 c 0.2,0.2 0.3,0.5 0.3,0.8 l -0.2,0.7 h 0.1 c 1,-0.4 1.9,-0.6 3,-0.8 1,-0.2 2.1,-0.3 3.2,-0.2 0.9,0.1 1.7,0.3 2.4,0.6 0.8,0.3 1.5,0.7 2.1,1.3 l 1.1,1.3 c 1.5,-1.1 3,-2 4.7,-2.6 1.7,-0.6 3.4,-1 5.3,-1 0.9,0 1.7,0.2 2.5,0.5 0.8,0.3 1.5,0.8 2.2,1.4 v 0.2 h 0.1 c 1.1,1.2 1.7,2.5 2,4 0.2,1 0.5,2.5 0.6,4 z" id="path2123" style="fill: rgb(124, 253, 160);"/>
        <path class="st1" d="m 308.2,381 0.1,-0.5 c 0,-0.3 -0.1,-0.6 -0.3,-0.8 l -0.5,-0.3 H 307 l -0.4,0.4 h -0.1 l 0.2,-0.5 c 0,-0.3 -0.1,-0.6 -0.3,-0.8 l -0.5,-0.3 c -0.3,0 -0.6,0 -0.8,0.2 l -0.4,0.8 h -0.1 l -0.5,-0.9 -0.5,-0.3 c -0.3,0 -0.6,0 -0.8,0.2 -1.2,2.3 -2.1,4.8 -2.9,7.3 -0.7,2.5 -1.3,5 -1.8,7.6 -0.6,-0.5 -1.2,-0.9 -1.9,-1.2 -0.7,-0.3 -1.4,-0.5 -2.2,-0.6 -2,0.1 -3.9,0.6 -5.8,1.4 -1.8,0.8 -3.5,1.9 -5,3.3 -1.7,1.7 -3.1,3.4 -4.3,5.3 -1.1,1.9 -1.9,4.7 -2.3,8.5 -0.1,1.1 0,2.1 0.3,3.1 0.3,1 0.8,1.8 1.5,2.6 0.6,0.6 1.3,1 2,1.4 0.8,0.3 1.6,0.5 2.4,0.6 2.3,0 4.6,-0.4 6.8,-1 2.2,-0.6 4.3,-1.6 6.4,-2.8 h 0.1 v 1.4 c 0,0.4 0.1,0.9 0.3,1.3 l 0.4,0.3 c 0.3,0 0.5,0 0.7,-0.1 h 0.1 c 0,0.5 0.1,0.9 0.3,1.3 l 0.6,0.3 0.7,-0.2 0.3,-0.5 h 0.6 l 0.1,0.3 0.5,0.4 c 0.3,0 0.6,0 0.8,-0.2 0.2,-0.2 0.3,-0.5 0.3,-0.9 l 0.6,0.3 0.3,-0.1 h 0.2 l 0.1,0.2 0.5,0.3 c 0.3,0 0.6,0 0.8,-0.2 0.2,-5.8 0.6,-11.8 1.1,-18.2 0.5,-6.4 1.4,-12.4 2.8,-18 0.2,0 0.1,-0.2 0,-0.4 z M 297,403.1 c -0.2,2.3 -0.3,4.4 -0.4,6.2 l -1.4,1 h -0.1 l -0.1,-0.3 -0.6,-0.3 -0.4,0.1 -0.6,-0.1 c -0.7,0.2 -1.3,0.6 -2,1 -0.6,0.4 -1.2,0.7 -1.8,1 -0.5,0.3 -1.1,0.5 -1.6,0.8 -0.5,0.2 -1.1,0.4 -1.7,0.5 -0.3,0.1 -0.6,0 -0.8,-0.2 -0.4,-0.4 -0.8,-0.8 -1,-1.3 -0.2,-0.5 -0.3,-1.1 -0.3,-1.6 0.4,-3 1,-5.2 1.7,-6.4 0.7,-1.3 1.8,-2.6 3.1,-3.9 0.9,-1 1.9,-1.8 3,-2.6 1.1,-0.8 2.3,-1.2 3.5,-1.4 l 0.7,0.2 c 0,0.3 0.1,0.5 0.3,0.7 0.2,0.2 0.5,0.3 0.9,0.3 l 0.1,0.2 h 0.1 c -0.2,1.7 -0.4,3.8 -0.6,6.1 z" id="path2125" style="fill: rgb(124, 253, 160);"/>
        <path class="st1" d="m 336.9,409.1 0.2,-0.3 0.4,-0.6 c 0,-0.3 0,-0.6 -0.3,-0.9 l -0.4,-0.2 c -0.5,-0.1 -0.9,0.1 -1.2,0.5 h -0.1 l -0.2,-0.3 -0.4,-0.3 c -2,1.1 -4,2.1 -6.1,3.1 -2.1,1 -4.3,1.7 -6.6,2 -0.6,0 -1.2,-0.1 -1.7,-0.3 -0.5,-0.2 -1,-0.4 -1.5,-0.8 -0.5,-0.4 -0.9,-0.9 -1.1,-1.4 -0.2,-0.5 -0.4,-1.1 -0.5,-1.7 v -0.5 l 1.7,-0.1 h 0.3 l 0.1,0.3 0.5,0.3 c 0.4,0 0.8,0 1.1,-0.2 h 0.2 l 0.2,0.5 0.5,0.3 c 0.3,0 0.6,0 0.9,-0.2 l 0.5,0.1 c 1.8,-0.7 3.6,-1.5 5.3,-2.5 1.7,-1 3.3,-2.1 4.9,-3.1 0.7,-0.6 1.3,-1.3 1.7,-2 0.4,-0.8 0.7,-1.6 0.8,-2.5 0,-0.7 -0.1,-1.3 -0.4,-1.9 -0.2,-0.6 -0.5,-1.2 -1,-1.7 -0.8,-0.8 -1.7,-1.4 -2.7,-1.7 -1,-0.4 -2,-0.6 -3.1,-0.7 -0.6,0 -1.2,0 -1.7,0 -0.6,0 -1.1,0.1 -1.6,0.2 h -0.2 v -0.2 l -0.5,-0.3 c -1.6,0.2 -3.1,0.7 -4.4,1.5 -1.3,0.8 -2.6,1.8 -3.7,2.9 l -0.2,0.3 -0.2,0.1 c -1.6,1.6 -3,3.5 -4.1,5.5 -1.1,2 -1.8,4.1 -2,6.4 0,1.2 0.1,2.3 0.6,3.3 0.4,1 1,1.9 1.7,2.7 l 0.2,0.2 c 1,0.8 2.1,1.5 3.3,2 1.2,0.6 2.4,0.9 3.7,0.9 h 2.3 c 2.5,-0.2 4.9,-0.7 7.3,-1.5 2.4,-0.9 4.6,-1.9 6.8,-3.1 l 0.3,-0.6 -0.2,-0.7 0.4,-0.4 0.3,-0.5 0.4,-0.4 0.3,-0.4 v -0.6 c -0.4,-0.2 -0.6,-0.4 -0.8,-0.5 z m -17.4,-8.4 c 0.7,-1.2 1.5,-2.3 2.4,-3.3 h 0.1 l 0.1,-0.1 c 0.7,-0.3 1.4,-0.6 2.1,-0.8 0.8,-0.2 1.5,-0.4 2.3,-0.5 0.6,0 1.1,0 1.7,0 0.5,0.1 1,0.3 1.5,0.6 l 0.4,0.7 -0.2,0.8 c -0.5,0.7 -1,1.3 -1.6,1.7 -0.6,0.4 -1.3,0.9 -2,1.2 -1.3,0.7 -2.6,1.3 -3.9,1.8 -1.3,0.5 -2.6,1 -3.9,1.4 h -0.3 c 0.1,-1.1 0.6,-2.4 1.3,-3.5 z" id="path2127" style="fill: rgb(124, 253, 160);"/>
        <path class="st1" d="m 380.7,403.6 v 3.2 c -0.1,1.8 -0.3,3.7 -0.6,5.5 -0.3,1.8 -0.6,3.6 -0.9,5.3 -0.4,0.2 -0.8,0.2 -1.2,0.2 h -0.2 l -0.6,0.2 -0.6,-0.4 v -0.1 h -0.1 l -0.2,0.5 c -0.3,0.2 -0.6,0.3 -1,0.3 -0.3,-0.1 -0.5,-0.3 -0.6,-0.6 l -0.1,-0.4 0.1,-0.2 h -0.2 l -0.3,0.1 -0.7,-0.4 c -0.2,0.6 -0.4,1.1 -0.8,1.6 -0.2,0.2 -0.5,0.2 -0.8,0.2 l -0.5,-0.3 c -0.2,-0.2 -0.2,-0.5 -0.2,-0.8 l 0.1,-0.3 c -0.2,-0.1 -0.4,-0.3 -0.5,-0.5 v -0.5 c 0.3,-2.1 0.7,-4.1 1,-6.2 0.3,-2.1 0.6,-4.2 0.9,-6.3 -0.1,-0.7 -0.1,-1.4 -0.2,-2.2 0,-0.7 -0.2,-1.4 -0.4,-2 -0.5,-0.4 -1,-0.6 -1.5,-0.8 -0.5,-0.2 -1.1,-0.3 -1.7,-0.3 -0.6,0.3 -1.2,0.6 -1.8,0.9 -0.6,0.3 -1.2,0.7 -1.7,1.1 l -0.5,0.9 v 3.3 c -0.2,2.3 -0.4,4.5 -0.6,6.8 -0.2,2.3 -0.6,4.4 -1.4,6.5 -0.2,0.1 -0.5,0.2 -0.8,0.2 -0.3,-0.1 -0.5,-0.3 -0.7,-0.6 v -0.4 c -0.3,0 -0.6,0 -0.9,-0.2 0.1,0.5 0,0.9 -0.4,1.2 -0.2,0.1 -0.5,0.2 -0.8,0.1 l -0.6,-0.5 v -0.3 h -0.1 l -0.3,0.3 -0.3,0.2 -0.4,0.4 -0.5,0.1 -0.6,-0.2 -0.6,0.2 -0.6,-0.4 -0.2,-0.7 c 0.4,-2.9 0.8,-5.7 1.2,-8.5 0.4,-2.9 0.7,-5.8 0.8,-8.7 -0.2,-0.7 -0.4,-1.3 -0.8,-1.8 -0.4,-0.2 -0.8,-0.3 -1.3,-0.4 -0.4,-0.1 -0.9,-0.1 -1.4,0 -0.8,0 -1.4,0.4 -1.9,1.2 -1.5,2.1 -2.3,4.5 -2.4,7.1 0,2.6 -0.1,5.2 -0.4,7.8 v 2.9 l -0.3,0.6 c -0.2,0.2 -0.5,0.2 -0.8,0.2 l -0.5,-0.3 -0.2,-0.5 H 347 c -0.2,0.2 -0.5,0.3 -0.9,0.3 -0.3,-0.1 -0.5,-0.3 -0.6,-0.6 v -0.4 h -0.1 l -0.5,0.4 c 0.1,0.6 0,1.2 -0.4,1.6 -0.2,0.1 -0.5,0.2 -0.8,0.1 l -0.6,-0.5 v -1.2 H 343 c -0.2,0.2 -0.5,0.2 -0.8,0.2 l -0.8,-0.5 c -0.2,-0.3 -0.3,-0.7 -0.3,-1.1 -0.2,0 -0.4,-0.1 -0.6,-0.4 -0.5,-0.6 -0.7,-1.4 -0.7,-2.3 0.2,-3.4 0.7,-6.8 1.3,-10.1 0.7,-3.4 1.7,-6.6 3.2,-9.7 0.3,-0.2 0.7,-0.3 1.1,-0.3 l 0.6,-1.1 c 0.2,-0.2 0.5,-0.2 0.8,-0.2 l 0.5,0.3 c 0.2,0.2 0.3,0.5 0.3,0.8 v 0.3 0 c 0.2,-0.2 0.5,-0.3 0.8,-0.3 l 0.4,0.1 0.4,-0.1 0.5,0.2 0.4,-0.3 h 0.5 l 0.5,0.3 c 0.2,0.2 0.3,0.5 0.3,0.8 l -0.1,0.2 c 0.2,0.2 0.3,0.5 0.3,0.8 l -0.2,0.7 h 0.1 c 1,-0.4 2,-0.6 3,-0.8 1,-0.2 2.1,-0.3 3.2,-0.2 0.8,0.1 1.7,0.3 2.4,0.6 0.8,0.3 1.5,0.7 2.2,1.3 l 1.1,1.3 c 1.5,-1.1 3,-2 4.7,-2.6 1.7,-0.6 3.4,-1 5.3,-1 0.9,0 1.7,0.2 2.5,0.5 0.8,0.3 1.5,0.8 2.2,1.4 v 0.2 h 0.1 c 1.1,1.2 1.7,2.5 2,4 0.2,1 0.4,2.5 0.5,4 z" id="path2129" style="fill: rgb(124, 253, 160);"/>
        <path class="st1" d="m 408,391.9 c -2.1,4.8 -3.7,9.7 -5,14.7 -1.2,5.1 -2.1,10.1 -2.7,15.2 l -0.6,0.2 c 0,0.9 -0.2,1.7 -0.6,2.5 -0.2,0.1 -0.4,0.2 -0.7,0.1 l -0.5,-0.3 -0.3,-0.6 -0.5,-0.1 c 0.1,0.6 0,1.2 -0.3,1.7 -0.2,0.2 -0.5,0.2 -0.8,0.2 l -0.5,-0.3 -0.2,-0.6 c -0.3,0 -0.6,0 -0.9,-0.2 -0.2,0.2 -0.5,0.3 -0.8,0.3 l -0.5,-0.3 -0.3,-0.7 0.1,-1.3 -0.2,-0.1 -0.6,0.1 -0.5,-0.3 c -0.2,-0.4 -0.3,-0.9 -0.2,-1.4 0.1,-1 0.2,-1.9 0.4,-2.8 0.2,-0.9 0.4,-1.8 0.6,-2.8 h -0.1 c -0.2,0.2 -0.5,0.3 -0.8,0.3 l -0.4,-0.1 -0.1,0.2 c -0.2,0.2 -0.5,0.3 -0.8,0.3 H 390 c 0,0.3 0,0.6 -0.3,0.9 -0.2,0.2 -0.5,0.2 -0.9,0.2 l -0.4,-0.3 c -1.4,-2.7 -2.4,-5.4 -2.9,-8.3 -0.5,-2.9 -0.8,-5.8 -0.9,-8.8 v -3.1 c 0,-1.1 0.1,-2.1 0.2,-3.2 0.1,-1.1 0.3,-2.1 0.6,-3.1 0.2,-0.2 0.5,-0.2 0.8,-0.2 h 0.3 l 0.3,-0.6 c 0.2,-0.2 0.5,-0.2 0.8,-0.2 l 0.5,0.3 c 0.2,0.2 0.3,0.5 0.3,0.8 v 0.3 l 0.6,0.1 c 0,-0.4 0.1,-0.7 0.3,-0.9 0.2,-0.2 0.5,-0.2 0.8,-0.2 l 0.5,0.3 c 0.2,0.2 0.3,0.5 0.3,0.9 v 0.4 l 0.3,0.2 0.3,0.5 v 2.4 c 0.1,2.4 0.5,4.7 1.1,7.1 0.6,2.4 1.3,4.6 2.3,6.8 h 0.2 c 1,-2.6 2,-5.1 3.1,-7.7 1.1,-2.5 2.4,-5 3.7,-7.4 l 0.6,-0.3 c 0.2,-0.5 0.5,-1 0.7,-1.4 0.2,-0.5 0.5,-0.9 0.8,-1.4 0.3,-0.2 0.6,-0.2 1,-0.2 h 0.3 0.4 l 0.5,0.3 c 0.2,0.2 0.3,0.5 0.3,0.9 h 0.2 c 0,0.1 0.1,0.2 0.4,0.2 l 0.6,-0.1 0.5,0.3 c -0.3,0.1 -0.2,0.3 -0.2,0.6 z" id="path2131" style="fill: rgb(124, 253, 160);"/>
        <path class="st2" d="m 134.8,393.6 c -1.8,-5.5 -3.6,-11 -5.5,-16.4 -0.2,-0.2 -0.5,-0.3 -0.9,-0.3 l -0.3,-0.4 0.2,-0.5 c 0,-0.3 -0.1,-0.6 -0.3,-0.8 l -0.7,-0.4 -0.5,0.1 -0.5,0.4 -0.5,0.3 -0.8,1.3 -0.2,-0.1 -0.5,0.1 c -0.6,0.5 -1.1,1.1 -1.5,1.7 l -0.5,-0.2 c -0.3,0 -0.6,0 -0.8,0.2 -2.7,4.4 -5.2,8.9 -7.4,13.6 -2.2,4.6 -4.2,9.4 -6,14.2 v 0.4 c 0.1,0.3 0.3,0.5 0.6,0.6 l -0.8,2.2 c 0,0.3 0,0.6 0.2,0.8 l 0.6,0.3 c 0.3,0 0.5,-0.1 0.7,-0.3 l 0.2,0.1 0.5,0.3 c 0.3,0 0.6,-0.1 0.9,-0.3 h 0.1 l -0.2,1.1 c 0,0.3 0,0.6 0.1,0.8 0.2,0.3 0.5,0.4 0.8,0.4 l -0.1,0.5 0.2,0.7 c 0.3,0.2 0.7,0.4 1.1,0.5 0.4,0.1 0.7,0 1,-0.3 0.7,-2 1.4,-4.1 2.1,-6.1 0.8,-2.1 1.5,-4.2 2.2,-6.2 1.7,-0.4 3.3,-0.9 5,-1.4 1.7,-0.5 3.3,-1 5,-1.5 0.3,-0.3 0.4,-0.6 0.3,-1 h 0.1 0.3 c 0.5,2.8 1.1,5.5 1.6,8.3 0.5,2.8 1.1,5.5 1.8,8.2 l 0.4,0.3 c 0.4,0.1 0.6,0 0.9,-0.2 l 0.3,-0.5 -0.1,-0.8 V 413 l 0.6,-0.2 0.3,-0.5 h 0.1 0.1 c 0,0.6 0.1,1.3 0.4,1.8 0.3,0.2 0.7,0.4 1.1,0.4 0.6,-0.2 1.2,-0.3 1.8,-0.5 l 0.4,-0.5 c 0,-0.4 -0.1,-0.9 -0.3,-1.3 -0.1,-0.4 -0.3,-0.8 -0.4,-1.2 v -0.2 h 0.2 0.6 c 0.3,-0.1 0.5,-0.3 0.6,-0.6 -1.3,-5.6 -2.8,-11.1 -4.6,-16.6 z m -6.5,0.4 c -1.2,0.1 -2.5,0.3 -3.7,0.6 -1.2,0.2 -2.5,0.5 -3.7,0.7 h -0.2 c 0.8,-2.3 1.6,-4.6 2.4,-6.9 0.9,-2.3 1.7,-4.6 2.7,-6.8 h 0.1 l 2.4,12.2 z" id="path2133" style="fill: rgb(141, 85, 250);"/>
        <path class="st2" d="m 167,394.9 -0.3,0.5 c -0.2,0.2 -0.5,0.3 -0.8,0.3 l -0.5,-0.2 v -0.1 c -1.1,-0.7 -2.2,-1.2 -3.4,-1.6 -1.2,-0.4 -2.5,-0.5 -3.8,-0.5 -0.7,0 -1.4,0.1 -2,0.3 -0.6,0.2 -1.2,0.6 -1.6,1.3 -1.3,1.4 -2.3,3 -3,4.7 -0.7,1.7 -1.1,3.5 -1.1,5.4 0.1,0.8 0.3,1.5 0.8,2.2 0.3,0.3 0.8,0.4 1.2,0.4 h 1.4 c 1.1,-0.5 2.2,-1.1 3.3,-1.7 1.1,-0.6 2.2,-1.1 3.3,-1.6 0.3,0.1 0.5,0.3 0.6,0.6 v 0.5 h 0.4 c 0.5,-0.4 1.2,-0.7 1.8,-0.8 l 0.5,0.3 c 0.3,0.3 0.4,0.7 0.4,1.1 l -0.3,0.5 -0.7,0.5 0.3,0.2 v 0.1 h 0.1 l 0.2,0.7 -0.4,0.6 -0.4,0.3 v 0.5 c 0.1,0.2 0.2,0.5 0.2,0.8 -0.1,0.3 -0.3,0.5 -0.6,0.6 l -0.1,0.6 h 0.1 l 1.6,-0.6 c 0.3,0 0.5,0.2 0.7,0.4 l 0.2,0.7 -0.3,0.5 c -1.7,0.7 -3.4,1.3 -5.2,1.7 -1.7,0.4 -3.5,0.8 -5.3,0.9 h -2 c -1.2,-0.1 -2.3,-0.3 -3.3,-0.7 -1.1,-0.4 -2,-1 -2.9,-1.7 v -0.1 l -0.7,-0.6 c -0.8,-0.8 -1.3,-1.7 -1.6,-2.6 -0.2,-1 -0.4,-2 -0.4,-3.1 0.2,-2.6 1,-5 2.2,-7.4 1.2,-2.3 2.8,-4.4 4.8,-6.2 1.4,-1.3 2.9,-2.3 4.6,-3 1.7,-0.8 3.5,-1.1 5.4,-1.1 0.8,0.1 1.5,0.2 2.1,0.5 0.7,0.3 1.3,0.6 1.9,1.1 0.2,0.5 0.4,1 0.6,1.5 0.2,0.5 0.4,1 0.4,1.6 0.6,0.2 1.2,0.6 1.7,1.1 -0.1,0 -0.1,0.3 -0.1,0.6 z" id="path2135" style="fill: rgb(141, 85, 250);"/>
        <path class="st2" d="m 193.7,394.9 -0.3,0.5 c -0.2,0.2 -0.5,0.3 -0.8,0.3 l -0.5,-0.2 v -0.1 c -1,-0.7 -2.2,-1.2 -3.4,-1.6 -1.2,-0.4 -2.5,-0.5 -3.8,-0.5 -0.7,0 -1.4,0.1 -2,0.3 -0.6,0.2 -1.2,0.6 -1.6,1.3 -1.3,1.4 -2.3,3 -3,4.7 -0.7,1.7 -1.1,3.5 -1.1,5.4 0.1,0.8 0.3,1.5 0.8,2.2 0.3,0.3 0.8,0.4 1.2,0.4 h 1.4 c 1.1,-0.5 2.2,-1.1 3.3,-1.7 1.1,-0.6 2.2,-1.1 3.3,-1.6 0.3,0.1 0.5,0.3 0.6,0.6 v 0.5 h 0.4 c 0.5,-0.4 1.2,-0.7 1.8,-0.8 l 0.5,0.3 c 0.3,0.3 0.4,0.7 0.4,1.1 l -0.3,0.5 -0.7,0.5 0.3,0.2 v 0.1 h 0.1 l 0.2,0.7 -0.4,0.6 -0.4,0.3 -0.1,0.5 c 0.1,0.2 0.2,0.5 0.2,0.8 -0.1,0.3 -0.3,0.5 -0.6,0.6 l -0.1,0.6 h 0.1 l 1.6,-0.6 c 0.3,0 0.5,0.2 0.7,0.4 l 0.2,0.7 -0.3,0.5 c -1.7,0.7 -3.4,1.3 -5.2,1.7 -1.7,0.4 -3.5,0.8 -5.3,0.9 h -2 c -1.2,-0.1 -2.3,-0.3 -3.3,-0.7 -1.1,-0.4 -2,-1 -2.9,-1.7 v -0.1 l -0.7,-0.6 c -0.8,-0.8 -1.3,-1.7 -1.6,-2.6 -0.2,-1 -0.4,-2 -0.4,-3.1 0.2,-2.6 1,-5 2.2,-7.4 1.2,-2.3 2.8,-4.4 4.8,-6.2 1.4,-1.3 2.9,-2.3 4.6,-3 1.7,-0.8 3.5,-1.1 5.4,-1.1 0.8,0.1 1.5,0.2 2.1,0.5 0.7,0.3 1.3,0.6 1.9,1.1 0.2,0.5 0.4,1 0.6,1.5 0.2,0.5 0.4,1 0.4,1.6 0.6,0.2 1.2,0.6 1.7,1.1 0,0 0.1,0.3 0,0.6 z" id="path2137" style="fill: rgb(141, 85, 250);"/>
        <path class="st2" d="m 225.3,398.1 c 0,-0.5 -0.1,-0.9 -0.4,-1.3 l -0.5,-0.3 c -0.3,0 -0.6,0 -0.8,0.2 h -0.3 l 0.1,-0.3 c 0,-0.3 -0.1,-0.6 -0.3,-0.8 l -0.5,-0.3 0.3,-0.5 c -0.1,-0.9 -0.4,-1.7 -0.8,-2.4 -0.4,-0.8 -0.9,-1.5 -1.5,-2.2 l -0.5,-0.4 v -0.1 c -0.8,-0.6 -1.6,-1.2 -2.5,-1.5 -0.9,-0.4 -1.8,-0.7 -2.8,-0.8 -2,-0.1 -4,0.2 -5.8,0.9 -1.8,0.6 -3.5,1.7 -5,3.1 -2.2,2.2 -3.9,4.6 -5.2,7.3 -1.3,2.7 -2.1,5.5 -2.2,8.5 -0.1,1.3 0,2.5 0.4,3.6 0.4,1.1 0.9,2.2 1.4,3.2 0.9,0.9 1.9,1.5 3.1,1.8 1.2,0.3 2.3,0.6 3.5,0.8 h 2.3 c 1.9,-0.1 3.8,-0.6 5.6,-1.2 1.8,-0.6 3.5,-1.6 5.1,-2.9 l 0.3,-0.5 c 0,-0.3 -0.1,-0.5 -0.3,-0.7 1.9,-1.8 3.4,-3.8 4.6,-6.1 1.2,-2.3 2.1,-4.7 2.7,-7.1 z m -5.9,-3.3 -0.3,0.1 c -0.3,0.6 -0.5,1.3 -0.7,2.1 l -0.3,0.2 -0.6,1 c -1,1.8 -2.1,3.5 -3.2,5.2 -1.1,1.7 -2.6,3 -4.5,3.9 -0.8,0.4 -1.6,0.8 -2.4,1 -0.8,0.3 -1.7,0.4 -2.5,0.5 -0.9,0 -1.6,-0.1 -2.4,-0.4 l -0.2,-0.9 c -0.1,-1.6 0.2,-3 0.7,-4.5 0.5,-1.4 1.4,-2.7 2.5,-3.8 h 0.1 l 0.9,-1.1 c 1.3,-1.3 2.6,-2.4 4.1,-3.4 1.5,-1 3.1,-1.7 4.9,-1.9 0.4,0 0.7,0.2 1.1,0.4 l 0.9,1.2 0.6,0.3 h 0.4 c 0.3,-0.1 0.4,-0.3 0.5,-0.6 z" id="path2139" style="fill: rgb(141, 85, 250);"/>
        <path class="st2" d="m 270.1,400.6 v 3.2 c -0.1,1.8 -0.3,3.7 -0.6,5.5 -0.3,1.8 -0.6,3.6 -0.9,5.3 -0.4,0.2 -0.8,0.2 -1.2,0.2 h -0.2 l -0.6,0.2 -0.6,-0.4 v -0.1 h -0.1 l -0.2,0.5 c -0.3,0.2 -0.6,0.3 -1,0.3 -0.3,-0.1 -0.5,-0.3 -0.6,-0.6 v -0.4 -0.2 h -0.2 l -0.3,0.1 -0.7,-0.4 c -0.2,0.6 -0.4,1.1 -0.8,1.6 -0.2,0.2 -0.5,0.2 -0.8,0.2 l -0.5,-0.3 c -0.2,-0.2 -0.2,-0.5 -0.2,-0.8 v -0.3 c -0.2,-0.1 -0.4,-0.3 -0.5,-0.5 l -0.1,-0.5 c 0.3,-2.1 0.7,-4.1 1,-6.2 0.3,-2.1 0.6,-4.2 0.9,-6.3 -0.1,-0.7 -0.1,-1.4 -0.2,-2.2 0,-0.7 -0.2,-1.4 -0.4,-2 -0.5,-0.4 -1,-0.6 -1.5,-0.8 -0.5,-0.2 -1.1,-0.3 -1.7,-0.3 -0.6,0.3 -1.2,0.6 -1.8,0.9 -0.6,0.3 -1.2,0.7 -1.7,1.1 l -0.5,0.9 v 3.3 c -0.2,2.3 -0.4,4.5 -0.6,6.8 -0.2,2.3 -0.6,4.4 -1.4,6.5 -0.2,0.1 -0.5,0.2 -0.8,0.2 -0.3,-0.1 -0.5,-0.3 -0.7,-0.6 l -0.1,-0.4 c -0.3,0 -0.6,0 -0.9,-0.2 0.1,0.5 0,0.9 -0.4,1.2 -0.2,0.1 -0.5,0.2 -0.8,0.1 l -0.6,-0.5 v -0.3 h -0.1 l -0.3,0.3 -0.3,0.2 -0.4,0.4 -0.5,0.1 -0.6,-0.2 -0.6,0.2 -0.6,-0.4 -0.2,-0.7 c 0.4,-2.9 0.8,-5.7 1.2,-8.5 0.5,-2.9 0.7,-5.8 0.8,-8.7 -0.2,-0.7 -0.4,-1.3 -0.8,-1.8 -0.4,-0.2 -0.8,-0.3 -1.3,-0.4 -0.4,-0.1 -0.9,-0.1 -1.4,0 -0.8,0 -1.4,0.4 -1.9,1.2 -1.5,2.1 -2.3,4.5 -2.4,7.1 0,2.6 -0.2,5.2 -0.4,7.8 v 2.9 l -0.3,0.6 c -0.2,0.2 -0.5,0.2 -0.8,0.2 l -0.5,-0.3 -0.2,-0.5 h -0.1 c -0.2,0.2 -0.5,0.3 -0.9,0.3 -0.3,-0.1 -0.5,-0.3 -0.6,-0.6 v -0.4 h -0.1 l -0.5,0.4 c 0.1,0.6 0,1.2 -0.4,1.6 -0.2,0.1 -0.5,0.2 -0.8,0.1 l -0.6,-0.5 v -1.2 h -0.1 c -0.2,0.2 -0.5,0.2 -0.8,0.2 l -0.8,-0.5 c -0.2,-0.3 -0.3,-0.7 -0.3,-1.1 -0.2,0 -0.4,-0.1 -0.6,-0.4 -0.5,-0.6 -0.7,-1.4 -0.7,-2.3 0.2,-3.4 0.6,-6.8 1.3,-10.1 0.7,-3.4 1.7,-6.6 3.2,-9.7 0.3,-0.2 0.7,-0.3 1.1,-0.3 l 0.6,-1.1 c 0.2,-0.2 0.5,-0.2 0.8,-0.2 l 0.5,0.3 c 0.2,0.2 0.3,0.5 0.3,0.8 v 0.3 0 c 0.2,-0.2 0.5,-0.3 0.8,-0.3 l 0.4,0.1 0.4,-0.1 0.5,0.2 0.4,-0.3 h 0.5 l 0.5,0.3 c 0.2,0.2 0.3,0.5 0.3,0.8 v 0.2 c 0.2,0.2 0.3,0.5 0.3,0.8 l -0.2,0.7 h 0.1 c 1,-0.4 1.9,-0.6 3,-0.8 1,-0.2 2.1,-0.3 3.2,-0.2 0.9,0.1 1.7,0.3 2.4,0.6 0.8,0.3 1.5,0.7 2.1,1.3 l 1.1,1.3 c 1.5,-1.1 3,-2 4.7,-2.6 1.7,-0.6 3.4,-1 5.3,-1 0.9,0 1.7,0.2 2.5,0.5 0.8,0.3 1.5,0.8 2.2,1.4 v 0.2 h 0.1 c 1.1,1.2 1.7,2.5 2,4 0.5,1 0.7,2.5 0.8,4 z" id="path2141" style="fill: rgb(141, 85, 250);"/>
        <path class="st2" d="m 305.1,378 0.1,-0.5 c 0,-0.3 -0.1,-0.6 -0.3,-0.8 l -0.5,-0.3 h -0.5 l -0.4,0.4 h -0.1 l 0.2,-0.5 c 0,-0.3 -0.1,-0.6 -0.3,-0.8 l -0.5,-0.3 c -0.3,0 -0.6,0 -0.8,0.2 l -0.4,0.8 h -0.1 l -0.5,-0.9 -0.5,-0.3 c -0.3,0 -0.6,0 -0.8,0.2 -1.2,2.3 -2.1,4.8 -2.9,7.3 -0.7,2.5 -1.3,5 -1.8,7.6 -0.6,-0.5 -1.2,-0.9 -1.9,-1.2 -0.7,-0.3 -1.4,-0.5 -2.2,-0.6 -2,0.1 -3.9,0.6 -5.8,1.4 -1.8,0.8 -3.5,1.9 -5,3.3 -1.7,1.7 -3.1,3.4 -4.3,5.3 -1.1,1.9 -1.9,4.7 -2.3,8.5 -0.1,1.1 0,2.1 0.3,3.1 0.3,1 0.8,1.8 1.5,2.6 0.6,0.6 1.3,1 2,1.4 0.8,0.3 1.6,0.5 2.4,0.6 2.3,0 4.6,-0.4 6.8,-1 2.2,-0.6 4.3,-1.6 6.4,-2.8 h 0.1 v 1.4 c 0,0.4 0.1,0.9 0.3,1.3 l 0.4,0.3 c 0.3,0 0.5,0 0.7,-0.1 h 0.1 c 0,0.5 0.1,0.9 0.3,1.3 l 0.6,0.3 0.7,-0.2 0.3,-0.5 h 0.6 l 0.1,0.3 0.5,0.4 c 0.3,0 0.6,0 0.8,-0.2 0.2,-0.2 0.3,-0.5 0.3,-0.9 l 0.6,0.3 0.3,-0.1 h 0.2 l 0.1,0.2 0.5,0.3 c 0.3,0 0.6,0 0.8,-0.2 0.2,-5.8 0.6,-11.8 1.1,-18.2 0.5,-6.4 1.4,-12.4 2.8,-18 0.2,0 0.1,-0.3 0,-0.4 z M 294,400.1 c -0.2,2.3 -0.3,4.4 -0.4,6.2 l -1.4,1 h -0.1 l -0.1,-0.3 -0.6,-0.3 -0.4,0.1 -0.6,-0.1 c -0.7,0.2 -1.3,0.6 -2,1 -0.6,0.4 -1.2,0.7 -1.8,1 -0.5,0.3 -1.1,0.5 -1.6,0.8 -0.5,0.2 -1.1,0.4 -1.7,0.5 -0.3,0.1 -0.6,0 -0.8,-0.2 -0.4,-0.4 -0.8,-0.8 -1,-1.3 -0.2,-0.5 -0.3,-1.1 -0.3,-1.6 0.4,-3 1,-5.2 1.7,-6.4 0.7,-1.3 1.8,-2.6 3.1,-3.9 0.9,-1 1.9,-1.8 3,-2.6 1.1,-0.8 2.3,-1.2 3.5,-1.4 l 0.7,0.2 c 0,0.3 0.1,0.5 0.3,0.7 0.2,0.2 0.5,0.3 0.9,0.3 l 0.1,0.2 h 0.1 c -0.2,1.6 -0.4,3.7 -0.6,6.1 z" id="path2143" style="fill: rgb(141, 85, 250);"/>
        <path class="st2" d="m 333.8,406.1 0.2,-0.3 0.4,-0.6 c 0,-0.3 0,-0.6 -0.3,-0.9 l -0.4,-0.2 c -0.5,-0.1 -0.9,0.1 -1.2,0.5 h -0.1 l -0.2,-0.3 -0.2,-0.3 c -2,1.1 -4,2.1 -6.1,3.1 -2.1,1 -4.3,1.7 -6.6,2 -0.6,0 -1.2,-0.1 -1.7,-0.3 -0.5,-0.2 -1,-0.4 -1.5,-0.8 -0.5,-0.4 -0.9,-0.9 -1.1,-1.4 -0.2,-0.5 -0.4,-1.1 -0.5,-1.7 v -0.5 l 1.7,-0.1 h 0.3 l 0.1,0.3 0.5,0.3 c 0.4,0 0.8,0 1.1,-0.2 h 0.2 l 0.2,0.5 0.5,0.3 c 0.3,0 0.6,0 0.9,-0.2 l 0.5,0.1 c 1.8,-0.7 3.6,-1.5 5.3,-2.5 1.7,-1 3.3,-2.1 4.9,-3.1 0.7,-0.6 1.3,-1.3 1.7,-2 0.4,-0.8 0.7,-1.6 0.8,-2.5 0,-0.7 -0.1,-1.3 -0.4,-1.9 -0.2,-0.6 -0.5,-1.2 -1,-1.7 -0.8,-0.8 -1.7,-1.4 -2.7,-1.7 -1,-0.4 -2,-0.6 -3.1,-0.7 -0.6,0 -1.2,0 -1.7,0 -0.6,0 -1.1,0.1 -1.6,0.2 h -0.2 v -0.2 L 322,389 c -1.6,0.2 -3.1,0.7 -4.4,1.5 -1.3,0.8 -2.6,1.8 -3.7,2.9 l -0.2,0.3 -0.2,0.1 c -1.6,1.6 -3,3.5 -4.1,5.5 -1.1,2 -1.8,4.1 -2,6.4 0,1.2 0.1,2.3 0.6,3.3 0.4,1 1,1.9 1.7,2.7 l 0.2,0.2 c 1,0.8 2.1,1.5 3.3,2 1.2,0.6 2.4,0.9 3.7,0.9 h 2.3 c 2.5,-0.2 4.9,-0.7 7.3,-1.5 2.4,-0.9 4.6,-1.9 6.8,-3.1 l 0.3,-0.6 -0.2,-0.7 0.4,-0.4 0.3,-0.5 0.4,-0.4 0.3,-0.4 v -0.6 c -0.6,-0.3 -0.8,-0.4 -1,-0.5 z m -17.3,-8.5 c 0.7,-1.2 1.5,-2.3 2.4,-3.3 h 0.1 l 0.1,-0.1 c 0.7,-0.3 1.4,-0.6 2.1,-0.8 0.8,-0.2 1.5,-0.4 2.3,-0.5 0.6,0 1.1,0 1.7,0 0.5,0.1 1,0.3 1.5,0.6 l 0.4,0.7 -0.2,0.8 c -0.5,0.7 -1,1.3 -1.6,1.7 -0.6,0.4 -1.3,0.9 -2,1.2 -1.3,0.7 -2.6,1.3 -3.9,1.8 -1.3,0.5 -2.6,1 -3.9,1.4 h -0.3 c 0,-1.1 0.6,-2.3 1.3,-3.5 z" id="path2145" style="fill: rgb(141, 85, 250);"/>
        <path class="st2" d="m 377.7,400.6 v 3.2 c -0.1,1.8 -0.3,3.7 -0.6,5.5 -0.3,1.8 -0.6,3.6 -0.9,5.3 -0.4,0.2 -0.8,0.2 -1.2,0.2 h -0.2 l -0.6,0.2 -0.6,-0.4 v -0.1 h -0.1 l -0.2,0.5 c -0.3,0.2 -0.6,0.3 -1,0.3 -0.3,-0.1 -0.5,-0.3 -0.6,-0.6 l -0.1,-0.4 0.1,-0.2 h -0.2 l -0.3,0.1 -0.7,-0.4 c -0.2,0.6 -0.4,1.1 -0.8,1.6 -0.2,0.2 -0.5,0.2 -0.8,0.2 l -0.5,-0.3 c -0.2,-0.2 -0.2,-0.5 -0.2,-0.8 l 0.1,-0.3 c -0.2,-0.1 -0.4,-0.3 -0.5,-0.5 v -0.5 c 0.3,-2.1 0.7,-4.1 1,-6.2 0.3,-2.1 0.6,-4.2 0.9,-6.3 -0.1,-0.7 -0.1,-1.4 -0.2,-2.2 0,-0.7 -0.2,-1.4 -0.4,-2 -0.5,-0.4 -1,-0.6 -1.5,-0.8 -0.5,-0.2 -1.1,-0.3 -1.7,-0.3 -0.6,0.3 -1.2,0.6 -1.8,0.9 -0.6,0.3 -1.2,0.7 -1.7,1.1 l -0.5,0.9 v 3.3 c -0.2,2.3 -0.4,4.5 -0.6,6.8 -0.2,2.3 -0.6,4.4 -1.4,6.5 -0.2,0.1 -0.5,0.2 -0.8,0.2 -0.3,-0.1 -0.5,-0.3 -0.7,-0.6 v -0.4 c -0.3,0 -0.6,0 -0.9,-0.2 0.1,0.5 0,0.9 -0.4,1.2 -0.2,0.1 -0.5,0.2 -0.8,0.1 l -0.6,-0.5 v -0.3 h -0.1 l -0.3,0.3 -0.3,0.2 -0.4,0.4 -0.5,0.1 -0.6,-0.2 -0.6,0.2 -0.6,-0.4 -0.2,-0.7 c 0.4,-2.9 0.8,-5.7 1.2,-8.5 0.4,-2.9 0.7,-5.8 0.8,-8.7 -0.2,-0.7 -0.4,-1.3 -0.8,-1.8 -0.4,-0.2 -0.8,-0.3 -1.3,-0.4 -0.4,-0.1 -0.9,-0.1 -1.4,0 -0.8,0 -1.4,0.4 -1.9,1.2 -1.5,2.1 -2.3,4.5 -2.4,7.1 0,2.6 -0.1,5.2 -0.4,7.8 v 2.9 l -0.3,0.6 c -0.2,0.2 -0.5,0.2 -0.8,0.2 l -0.5,-0.3 -0.2,-0.5 H 344 c -0.2,0.2 -0.5,0.3 -0.9,0.3 -0.3,-0.1 -0.5,-0.3 -0.6,-0.6 v -0.4 h -0.1 l -0.5,0.4 c 0.1,0.6 0,1.2 -0.4,1.6 -0.2,0.1 -0.5,0.2 -0.8,0.1 l -0.6,-0.5 v -1.2 H 340 c -0.2,0.2 -0.5,0.2 -0.8,0.2 l -0.8,-0.5 c -0.2,-0.3 -0.3,-0.7 -0.3,-1.1 -0.2,0 -0.4,-0.1 -0.6,-0.4 -0.5,-0.6 -0.7,-1.4 -0.7,-2.3 0.2,-3.4 0.7,-6.8 1.3,-10.1 0.7,-3.4 1.7,-6.6 3.2,-9.7 0.3,-0.2 0.7,-0.3 1.1,-0.3 l 0.6,-1.1 c 0.2,-0.2 0.5,-0.2 0.8,-0.2 l 0.5,0.3 c 0.2,0.2 0.3,0.5 0.3,0.8 v 0.3 0 c 0.2,-0.2 0.5,-0.3 0.8,-0.3 l 0.4,0.1 0.4,-0.1 0.5,0.2 0.4,-0.3 h 0.5 l 0.5,0.3 c 0.2,0.2 0.3,0.5 0.3,0.8 l -0.1,0.2 c 0.2,0.2 0.3,0.5 0.3,0.8 l -0.2,0.7 h 0.1 c 1,-0.4 2,-0.6 3,-0.8 1,-0.2 2.1,-0.3 3.2,-0.2 0.8,0.1 1.7,0.3 2.4,0.6 0.8,0.3 1.5,0.7 2.2,1.3 l 1.1,1.3 c 1.5,-1.1 3,-2 4.7,-2.6 1.7,-0.6 3.4,-1 5.3,-1 0.9,0 1.7,0.2 2.5,0.5 0.8,0.3 1.5,0.8 2.2,1.4 v 0.2 h 0.1 c 1.1,1.2 1.7,2.5 2,4 0.2,1 0.4,2.5 0.5,4 z" id="path2147" style="fill: rgb(141, 85, 250);"/>
        <path class="st2" d="m 404.9,388.9 c -2.1,4.8 -3.7,9.7 -5,14.7 -1.2,5.1 -2.1,10.1 -2.7,15.2 l -0.6,0.2 c 0,0.9 -0.2,1.7 -0.6,2.5 -0.2,0.1 -0.4,0.2 -0.7,0.1 l -0.5,-0.3 -0.3,-0.6 -0.5,-0.1 c 0.1,0.6 0,1.2 -0.3,1.7 -0.2,0.2 -0.5,0.2 -0.8,0.2 l -0.5,-0.3 -0.2,-0.6 c -0.3,0 -0.6,0 -0.9,-0.2 -0.2,0.2 -0.5,0.3 -0.8,0.3 l -0.5,-0.3 -0.3,-0.7 0.1,-1.3 -0.2,-0.1 -0.6,0.1 -0.5,-0.3 c -0.2,-0.4 -0.3,-0.9 -0.2,-1.4 0.1,-1 0.2,-1.9 0.4,-2.8 0.2,-0.9 0.4,-1.8 0.6,-2.8 h -0.1 c -0.2,0.2 -0.5,0.3 -0.8,0.3 l -0.4,-0.1 -0.1,0.2 c -0.2,0.2 -0.5,0.3 -0.8,0.3 h -0.2 c 0,0.3 0,0.6 -0.3,0.9 -0.2,0.2 -0.5,0.2 -0.9,0.2 l -0.4,-0.3 c -1.4,-2.7 -2.4,-5.4 -2.9,-8.3 -0.5,-2.9 -0.8,-5.8 -0.9,-8.8 v -3.1 c 0,-1.1 0.1,-2.1 0.2,-3.2 0.1,-1.1 0.3,-2.1 0.6,-3.1 0.2,-0.2 0.5,-0.2 0.8,-0.2 h 0.3 l 0.3,-0.6 c 0.2,-0.2 0.5,-0.2 0.8,-0.2 l 0.5,0.3 c 0.2,0.2 0.3,0.5 0.3,0.8 v 0.3 l 0.6,0.1 c 0,-0.4 0.1,-0.7 0.3,-0.9 0.2,-0.2 0.5,-0.2 0.8,-0.2 l 0.5,0.3 c 0.2,0.2 0.3,0.5 0.3,0.9 v 0.4 l 0.3,0.2 0.3,0.5 v 2.4 c 0.1,2.4 0.5,4.7 1.1,7.1 0.6,2.4 1.3,4.6 2.3,6.8 h 0.2 c 1,-2.6 2,-5.1 3.1,-7.7 1.1,-2.5 2.4,-5 3.7,-7.4 l 0.6,-0.3 c 0.2,-0.5 0.5,-1 0.7,-1.4 0.2,-0.5 0.5,-0.9 0.8,-1.4 0.3,-0.2 0.6,-0.2 1,-0.2 h 0.3 0.4 l 0.5,0.3 c 0.2,0.2 0.3,0.5 0.3,0.9 h 0.2 c 0,0.1 0.1,0.2 0.4,0.2 l 0.6,-0.1 0.5,0.3 c -0.3,0 -0.2,0.3 -0.2,0.6 z" id="path2149" style="fill: rgb(141, 85, 250);"/>
        <path class="st1" d="m 137.8,396.6 c -1.8,-5.5 -3.6,-11 -5.5,-16.4 -0.2,-0.2 -0.5,-0.3 -0.9,-0.3 l -0.3,-0.4 0.2,-0.5 c 0,-0.3 -0.1,-0.6 -0.3,-0.8 l -0.7,-0.4 -0.5,0.1 -0.5,0.4 -0.5,0.3 -0.8,1.3 -0.2,-0.1 -0.5,0.1 c -0.6,0.5 -1.1,1.1 -1.5,1.7 l -0.5,-0.2 c -0.3,0 -0.6,0 -0.8,0.2 -2.7,4.4 -5.2,8.9 -7.4,13.6 -2.2,4.6 -4.2,9.4 -6,14.2 v 0.4 c 0.1,0.3 0.3,0.5 0.6,0.6 l -0.8,2.2 c 0,0.3 0,0.6 0.2,0.8 l 0.6,0.3 c 0.3,0 0.5,-0.1 0.7,-0.3 l 0.2,0.1 0.5,0.3 c 0.3,0 0.6,-0.1 0.9,-0.3 h 0.1 l -0.2,1.1 c 0,0.3 0,0.6 0.1,0.8 0.2,0.3 0.5,0.4 0.8,0.4 l -0.1,0.5 0.2,0.7 c 0.3,0.2 0.7,0.4 1.1,0.5 0.4,0.1 0.7,0 1,-0.3 0.7,-2 1.4,-4.1 2.1,-6.1 0.8,-2.1 1.5,-4.2 2.2,-6.2 1.7,-0.4 3.3,-0.9 5,-1.4 1.7,-0.5 3.3,-1 5,-1.5 0.3,-0.3 0.4,-0.6 0.3,-1 h 0.1 0.3 c 0.5,2.8 1.1,5.5 1.6,8.3 0.5,2.8 1.1,5.5 1.8,8.2 l 0.4,0.3 c 0.4,0.1 0.6,0 0.9,-0.2 l 0.3,-0.5 -0.1,-0.8 V 416 l 0.6,-0.2 0.3,-0.5 h 0.1 0.1 c 0,0.6 0.1,1.3 0.4,1.8 0.3,0.2 0.7,0.4 1.1,0.4 0.6,-0.2 1.2,-0.3 1.8,-0.5 l 0.4,-0.5 c 0,-0.4 -0.1,-0.9 -0.3,-1.3 -0.1,-0.4 -0.3,-0.8 -0.4,-1.2 v -0.2 h 0.2 0.6 c 0.3,-0.1 0.5,-0.3 0.6,-0.6 -1.3,-5.5 -2.8,-11.1 -4.6,-16.6 z m -6.5,0.5 c -1.2,0.1 -2.5,0.3 -3.7,0.6 -1.2,0.2 -2.5,0.5 -3.7,0.7 h -0.2 c 0.8,-2.3 1.6,-4.6 2.4,-6.9 0.9,-2.3 1.7,-4.6 2.7,-6.8 h 0.1 l 2.4,12.2 z" id="path2151" style="fill: rgb(124, 253, 160);"/>
        <path class="st1" d="m 170,398 -0.3,0.5 c -0.2,0.2 -0.5,0.3 -0.8,0.3 l -0.5,-0.2 v -0.1 c -1.1,-0.7 -2.2,-1.2 -3.4,-1.6 -1.2,-0.4 -2.5,-0.5 -3.8,-0.5 -0.7,0 -1.4,0.1 -2,0.3 -0.6,0.2 -1.2,0.6 -1.6,1.3 -1.3,1.4 -2.3,3 -3,4.7 -0.7,1.7 -1.1,3.5 -1.1,5.4 0.1,0.8 0.3,1.5 0.8,2.2 0.3,0.3 0.8,0.4 1.2,0.4 h 1.4 c 1.1,-0.5 2.2,-1.1 3.3,-1.7 1.1,-0.6 2.2,-1.1 3.3,-1.6 0.3,0.1 0.5,0.3 0.6,0.6 v 0.5 h 0.4 c 0.5,-0.4 1.2,-0.7 1.8,-0.8 l 0.5,0.3 c 0.3,0.3 0.4,0.7 0.4,1.1 l -0.3,0.5 -0.7,0.5 0.3,0.2 v 0.1 h 0.1 l 0.2,0.7 -0.4,0.6 -0.4,0.3 v 0.5 c 0.1,0.2 0.2,0.5 0.2,0.8 -0.1,0.3 -0.3,0.5 -0.6,0.6 l -0.1,0.6 h 0.1 l 1.6,-0.6 c 0.3,0 0.5,0.2 0.7,0.4 l 0.2,0.7 -0.3,0.5 c -1.7,0.7 -3.4,1.3 -5.2,1.7 -1.7,0.4 -3.5,0.8 -5.3,0.9 h -2 c -1.2,-0.1 -2.3,-0.3 -3.3,-0.7 -1.1,-0.4 -2,-1 -2.9,-1.7 v -0.1 l -0.7,-0.6 c -0.8,-0.8 -1.3,-1.7 -1.6,-2.6 -0.2,-1 -0.4,-2 -0.4,-3.1 0.2,-2.6 1,-5 2.2,-7.4 1.2,-2.3 2.8,-4.4 4.8,-6.2 1.4,-1.3 2.9,-2.3 4.6,-3 1.7,-0.8 3.5,-1.1 5.4,-1.1 0.8,0.1 1.5,0.2 2.1,0.5 0.7,0.3 1.3,0.6 1.9,1.1 0.2,0.5 0.4,1 0.6,1.5 0.2,0.5 0.4,1 0.4,1.6 0.6,0.2 1.2,0.6 1.7,1.1 -0.1,0 0,0.3 -0.1,0.6 z" id="path2153" style="fill: rgb(124, 253, 160);"/>
        <path class="st1" d="m 196.8,398 -0.3,0.5 c -0.2,0.2 -0.5,0.3 -0.8,0.3 l -0.5,-0.2 v -0.1 c -1,-0.7 -2.2,-1.2 -3.4,-1.6 -1.2,-0.4 -2.5,-0.5 -3.8,-0.5 -0.7,0 -1.4,0.1 -2,0.3 -0.6,0.2 -1.2,0.6 -1.6,1.3 -1.3,1.4 -2.3,3 -3,4.7 -0.7,1.7 -1.1,3.5 -1.1,5.4 0.1,0.8 0.3,1.5 0.8,2.2 0.3,0.3 0.8,0.4 1.2,0.4 h 1.4 c 1.1,-0.5 2.2,-1.1 3.3,-1.7 1.1,-0.6 2.2,-1.1 3.3,-1.6 0.3,0.1 0.5,0.3 0.6,0.6 v 0.5 h 0.4 c 0.5,-0.4 1.2,-0.7 1.8,-0.8 l 0.5,0.3 c 0.3,0.3 0.4,0.7 0.4,1.1 l -0.3,0.5 -0.7,0.4 0.3,0.2 v 0.1 h 0.1 l 0.2,0.7 -0.4,0.6 -0.4,0.3 -0.1,0.5 c 0.1,0.2 0.2,0.5 0.2,0.8 -0.1,0.3 -0.3,0.5 -0.6,0.6 l -0.1,0.6 h 0.1 l 1.6,-0.6 c 0.3,0 0.5,0.2 0.7,0.4 l 0.2,0.7 -0.3,0.5 c -1.7,0.7 -3.4,1.3 -5.2,1.7 -1.7,0.4 -3.5,0.8 -5.3,0.9 h -2 c -1.2,-0.1 -2.3,-0.3 -3.3,-0.7 -1.1,-0.4 -2,-1 -2.9,-1.7 v -0.1 l -0.7,-0.6 c -0.8,-0.8 -1.3,-1.7 -1.6,-2.6 -0.2,-1 -0.4,-2 -0.4,-3.1 0.2,-2.6 1,-5 2.2,-7.4 1.2,-2.3 2.8,-4.4 4.8,-6.2 1.4,-1.3 2.9,-2.3 4.6,-3 1.7,-0.8 3.5,-1.1 5.4,-1.1 0.8,0.1 1.5,0.2 2.1,0.5 0.7,0.3 1.3,0.6 1.9,1.1 0.2,0.5 0.4,1 0.6,1.5 0.2,0.5 0.4,1 0.4,1.6 0.6,0.2 1.2,0.6 1.7,1.1 0,0.1 0,0.4 0,0.7 z" id="path2155" style="fill: rgb(124, 253, 160);"/>
        <path class="st1" d="m 228.4,401.1 c 0,-0.5 -0.1,-0.9 -0.4,-1.3 l -0.5,-0.3 c -0.3,0 -0.6,0 -0.8,0.2 h -0.3 l 0.1,-0.3 c 0,-0.3 -0.1,-0.6 -0.3,-0.8 l -0.5,-0.3 0.3,-0.5 c -0.1,-0.9 -0.4,-1.7 -0.8,-2.4 -0.4,-0.8 -0.9,-1.5 -1.5,-2.2 l -0.5,-0.4 v -0.1 c -0.8,-0.6 -1.6,-1.2 -2.5,-1.5 -0.9,-0.4 -1.8,-0.7 -2.8,-0.8 -2,-0.1 -4,0.2 -5.8,0.9 -1.8,0.6 -3.5,1.7 -5,3.1 -2.2,2.2 -3.9,4.6 -5.2,7.3 -1.3,2.7 -2.1,5.5 -2.2,8.5 -0.1,1.3 0,2.5 0.4,3.6 0.4,1.1 0.9,2.2 1.4,3.2 0.9,0.9 1.9,1.5 3.1,1.8 1.2,0.3 2.3,0.6 3.5,0.8 h 2.3 c 1.9,-0.1 3.8,-0.6 5.6,-1.2 1.8,-0.6 3.5,-1.6 5.1,-2.9 l 0.3,-0.5 c 0,-0.3 -0.1,-0.5 -0.3,-0.7 1.9,-1.8 3.4,-3.8 4.6,-6.1 1.2,-2.2 2,-4.6 2.7,-7.1 z m -5.9,-3.2 -0.3,0.1 c -0.3,0.6 -0.5,1.3 -0.7,2.1 l -0.3,0.2 -0.6,1 c -1,1.8 -2.1,3.5 -3.2,5.2 -1.1,1.7 -2.6,3 -4.5,3.9 -0.8,0.4 -1.6,0.8 -2.4,1 -0.8,0.3 -1.7,0.4 -2.5,0.5 -0.9,0 -1.6,-0.1 -2.4,-0.4 l -0.2,-0.9 c -0.1,-1.6 0.2,-3 0.7,-4.5 0.5,-1.4 1.4,-2.7 2.5,-3.8 h 0.1 l 0.9,-1.1 c 1.3,-1.3 2.6,-2.4 4.1,-3.4 1.5,-1 3.1,-1.7 4.9,-1.9 0.4,0 0.7,0.2 1.1,0.4 l 0.9,1.2 0.6,0.3 h 0.4 c 0.3,-0.1 0.4,-0.3 0.5,-0.6 z" id="path2157" style="fill: rgb(124, 253, 160);"/>
        <path class="st1" d="m 273.2,403.6 v 3.2 c -0.1,1.8 -0.3,3.7 -0.6,5.5 -0.3,1.8 -0.6,3.6 -0.9,5.3 -0.4,0.2 -0.8,0.2 -1.2,0.2 h -0.2 l -0.6,0.2 -0.6,-0.4 v -0.1 H 269 l -0.2,0.5 c -0.3,0.2 -0.6,0.3 -1,0.3 -0.3,-0.1 -0.5,-0.3 -0.6,-0.6 v -0.4 -0.2 H 267 l -0.3,0.1 -0.7,-0.4 c -0.2,0.6 -0.4,1.1 -0.8,1.6 -0.2,0.2 -0.5,0.2 -0.8,0.2 l -0.5,-0.3 c -0.2,-0.2 -0.2,-0.5 -0.2,-0.8 v -0.3 c -0.2,-0.1 -0.4,-0.3 -0.5,-0.5 l -0.1,-0.5 c 0.3,-2.1 0.7,-4.1 1,-6.2 0.3,-2.1 0.6,-4.2 0.9,-6.3 -0.1,-0.7 -0.1,-1.4 -0.2,-2.2 0,-0.7 -0.2,-1.4 -0.4,-2 -0.5,-0.4 -1,-0.6 -1.5,-0.8 -0.5,-0.2 -1.1,-0.3 -1.7,-0.3 -0.6,0.3 -1.2,0.6 -1.8,0.9 -0.6,0.3 -1.2,0.7 -1.7,1.1 l -0.5,0.9 v 3.3 c -0.2,2.3 -0.4,4.5 -0.6,6.8 -0.2,2.3 -0.6,4.4 -1.4,6.5 -0.2,0.1 -0.5,0.2 -0.8,0.2 -0.3,-0.1 -0.5,-0.3 -0.7,-0.6 l -0.1,-0.4 c -0.3,0 -0.6,0 -0.9,-0.2 0.1,0.5 0,0.9 -0.4,1.2 -0.2,0.1 -0.5,0.2 -0.8,0.1 l -0.6,-0.5 v -0.3 h 0.1 l -0.3,0.3 -0.3,0.2 -0.4,0.4 -0.5,0.1 -0.6,-0.2 -0.6,0.2 -0.6,-0.4 -0.2,-0.7 c 0.4,-2.9 0.8,-5.7 1.2,-8.5 0.5,-2.9 0.7,-5.8 0.8,-8.7 -0.2,-0.7 -0.4,-1.3 -0.8,-1.8 -0.4,-0.2 -0.8,-0.3 -1.3,-0.4 -0.4,-0.1 -0.9,-0.1 -1.4,0 -0.8,0 -1.4,0.4 -1.9,1.2 -1.5,2.1 -2.3,4.5 -2.4,7.1 0,2.6 -0.2,5.2 -0.4,7.8 v 2.9 l -0.3,0.6 c -0.2,0.2 -0.5,0.2 -0.8,0.2 l -0.5,-0.3 -0.2,-0.5 h -0.1 c -0.2,0.2 -0.5,0.3 -0.9,0.3 -0.3,-0.1 -0.5,-0.3 -0.6,-0.6 v -0.4 h -0.1 l -0.5,0.4 c 0.1,0.6 0,1.2 -0.4,1.6 -0.2,0.1 -0.5,0.2 -0.8,0.1 l -0.6,-0.5 v -1.2 h -0.1 c -0.2,0.2 -0.5,0.2 -0.8,0.2 l -0.8,-0.5 c -0.2,-0.3 -0.3,-0.7 -0.3,-1.1 -0.2,0 -0.4,-0.1 -0.6,-0.4 -0.5,-0.6 -0.7,-1.4 -0.7,-2.3 0.2,-3.4 0.6,-6.8 1.3,-10.1 0.7,-3.4 1.7,-6.6 3.2,-9.7 0.3,-0.2 0.7,-0.3 1.1,-0.3 l 0.6,-1.1 c 0.2,-0.2 0.5,-0.2 0.8,-0.2 l 0.5,0.3 c 0.2,0.2 0.3,0.5 0.3,0.8 v 0.3 0 c 0.2,-0.2 0.5,-0.3 0.8,-0.3 l 0.4,0.1 0.4,-0.1 0.5,0.2 0.4,-0.3 h 0.5 l 0.5,0.3 c 0.2,0.2 0.3,0.5 0.3,0.8 v 0.2 c 0.2,0.2 0.3,0.5 0.3,0.8 l -0.2,0.7 h 0.1 c 1,-0.4 1.9,-0.6 3,-0.8 1,-0.2 2.1,-0.3 3.2,-0.2 0.9,0.1 1.7,0.3 2.4,0.6 0.8,0.3 1.5,0.7 2.1,1.3 l 1.1,1.3 c 1.5,-1.1 3,-2 4.7,-2.6 1.7,-0.6 3.4,-1 5.3,-1 0.9,0 1.7,0.2 2.5,0.5 0.8,0.3 1.5,0.8 2.2,1.4 v 0.2 h 0.1 c 1.1,1.2 1.7,2.5 2,4 0.2,1 0.5,2.5 0.6,4 z" id="path2159" style="fill: rgb(124, 253, 160);"/>
        <path class="st1" d="m 308.2,381 0.1,-0.5 c 0,-0.3 -0.1,-0.6 -0.3,-0.8 l -0.5,-0.3 H 307 l -0.4,0.4 h -0.1 l 0.2,-0.5 c 0,-0.3 -0.1,-0.6 -0.3,-0.8 l -0.5,-0.3 c -0.3,0 -0.6,0 -0.8,0.2 l -0.4,0.8 h -0.1 l -0.5,-0.9 -0.5,-0.3 c -0.3,0 -0.6,0 -0.8,0.2 -1.2,2.3 -2.1,4.8 -2.9,7.3 -0.7,2.5 -1.3,5 -1.8,7.6 -0.6,-0.5 -1.2,-0.9 -1.9,-1.2 -0.7,-0.3 -1.4,-0.5 -2.2,-0.6 -2,0.1 -3.9,0.6 -5.8,1.4 -1.8,0.8 -3.5,1.9 -5,3.3 -1.7,1.7 -3.1,3.4 -4.3,5.3 -1.1,1.9 -1.9,4.7 -2.3,8.5 -0.1,1.1 0,2.1 0.3,3.1 0.3,1 0.8,1.8 1.5,2.6 0.6,0.6 1.3,1 2,1.4 0.8,0.3 1.6,0.5 2.4,0.6 2.3,0 4.6,-0.4 6.8,-1 2.2,-0.6 4.3,-1.6 6.4,-2.8 h 0.1 v 1.4 c 0,0.4 0.1,0.9 0.3,1.3 l 0.4,0.3 c 0.3,0 0.5,0 0.7,-0.1 h 0.1 c 0,0.5 0.1,0.9 0.3,1.3 l 0.6,0.3 0.7,-0.2 0.3,-0.5 h 0.6 l 0.1,0.3 0.5,0.4 c 0.3,0 0.6,0 0.8,-0.2 0.2,-0.2 0.3,-0.5 0.3,-0.9 l 0.6,0.3 0.3,-0.1 h 0.2 l 0.1,0.2 0.5,0.3 c 0.3,0 0.6,0 0.8,-0.2 0.2,-5.8 0.6,-11.8 1.1,-18.2 0.5,-6.4 1.4,-12.4 2.8,-18 0.2,0 0.1,-0.2 0,-0.4 z M 297,403.1 c -0.2,2.3 -0.3,4.4 -0.4,6.2 l -1.4,1 h -0.1 l -0.1,-0.3 -0.6,-0.3 -0.4,0.1 -0.6,-0.1 c -0.7,0.2 -1.3,0.6 -2,1 -0.6,0.4 -1.2,0.7 -1.8,1 -0.5,0.3 -1.1,0.5 -1.6,0.8 -0.5,0.2 -1.1,0.4 -1.7,0.5 -0.3,0.1 -0.6,0 -0.8,-0.2 -0.4,-0.4 -0.8,-0.8 -1,-1.3 -0.2,-0.5 -0.3,-1.1 -0.3,-1.6 0.4,-3 1,-5.2 1.7,-6.4 0.7,-1.3 1.8,-2.6 3.1,-3.9 0.9,-1 1.9,-1.8 3,-2.6 1.1,-0.8 2.3,-1.2 3.5,-1.4 l 0.7,0.2 c 0,0.3 0.1,0.5 0.3,0.7 0.2,0.2 0.5,0.3 0.9,0.3 l 0.1,0.2 h 0.1 c -0.2,1.7 -0.4,3.8 -0.6,6.1 z" id="path2161" style="fill: rgb(124, 253, 160);"/>
        <path class="st1" d="m 336.9,409.1 0.2,-0.3 0.4,-0.6 c 0,-0.3 0,-0.6 -0.3,-0.9 l -0.4,-0.2 c -0.5,-0.1 -0.9,0.1 -1.2,0.5 h -0.1 l -0.2,-0.3 -0.4,-0.3 c -2,1.1 -4,2.1 -6.1,3.1 -2.1,1 -4.3,1.7 -6.6,2 -0.6,0 -1.2,-0.1 -1.7,-0.3 -0.5,-0.2 -1,-0.4 -1.5,-0.8 -0.5,-0.4 -0.9,-0.9 -1.1,-1.4 -0.2,-0.5 -0.4,-1.1 -0.5,-1.7 v -0.5 l 1.7,-0.1 h 0.3 l 0.1,0.3 0.5,0.3 c 0.4,0 0.8,0 1.1,-0.2 h 0.2 l 0.2,0.5 0.5,0.3 c 0.3,0 0.6,0 0.9,-0.2 l 0.5,0.1 c 1.8,-0.7 3.6,-1.5 5.3,-2.5 1.7,-1 3.3,-2.1 4.9,-3.1 0.7,-0.6 1.3,-1.3 1.7,-2 0.4,-0.8 0.7,-1.6 0.8,-2.5 0,-0.7 -0.1,-1.3 -0.4,-1.9 -0.2,-0.6 -0.5,-1.2 -1,-1.7 -0.8,-0.8 -1.7,-1.4 -2.7,-1.7 -1,-0.4 -2,-0.6 -3.1,-0.7 -0.6,0 -1.2,0 -1.7,0 -0.6,0 -1.1,0.1 -1.6,0.2 h -0.2 v -0.2 l -0.5,-0.3 c -1.6,0.2 -3.1,0.7 -4.4,1.5 -1.3,0.8 -2.6,1.8 -3.7,2.9 l -0.2,0.3 -0.2,0.1 c -1.6,1.6 -3,3.5 -4.1,5.5 -1.1,2 -1.8,4.1 -2,6.4 0,1.2 0.1,2.3 0.6,3.3 0.4,1 1,1.9 1.7,2.7 l 0.2,0.2 c 1,0.8 2.1,1.5 3.3,2 1.2,0.6 2.4,0.9 3.7,0.9 h 2.3 c 2.5,-0.2 4.9,-0.7 7.3,-1.5 2.4,-0.9 4.6,-1.9 6.8,-3.1 l 0.3,-0.6 -0.2,-0.7 0.4,-0.4 0.3,-0.5 0.4,-0.4 0.3,-0.4 v -0.6 c -0.4,-0.2 -0.6,-0.4 -0.8,-0.5 z m -17.4,-8.4 c 0.7,-1.2 1.5,-2.3 2.4,-3.3 h 0.1 l 0.1,-0.1 c 0.7,-0.3 1.4,-0.6 2.1,-0.8 0.8,-0.2 1.5,-0.4 2.3,-0.5 0.6,0 1.1,0 1.7,0 0.5,0.1 1,0.3 1.5,0.6 l 0.4,0.7 -0.2,0.8 c -0.5,0.7 -1,1.3 -1.6,1.7 -0.6,0.4 -1.3,0.9 -2,1.2 -1.3,0.7 -2.6,1.3 -3.9,1.8 -1.3,0.5 -2.6,1 -3.9,1.4 h -0.3 c 0.1,-1.1 0.6,-2.4 1.3,-3.5 z" id="path2163" style="fill: rgb(124, 253, 160);"/>
        <path class="st1" d="m 380.7,403.6 v 3.2 c -0.1,1.8 -0.3,3.7 -0.6,5.5 -0.3,1.8 -0.6,3.6 -0.9,5.3 -0.4,0.2 -0.8,0.2 -1.2,0.2 h -0.2 l -0.6,0.2 -0.6,-0.4 v -0.1 h -0.1 l -0.2,0.5 c -0.3,0.2 -0.6,0.3 -1,0.3 -0.3,-0.1 -0.5,-0.3 -0.6,-0.6 l -0.1,-0.4 0.1,-0.2 h -0.2 l -0.3,0.1 -0.7,-0.4 c -0.2,0.6 -0.4,1.1 -0.8,1.6 -0.2,0.2 -0.5,0.2 -0.8,0.2 l -0.5,-0.3 c -0.2,-0.2 -0.2,-0.5 -0.2,-0.8 l 0.1,-0.3 c -0.2,-0.1 -0.4,-0.3 -0.5,-0.5 v -0.5 c 0.3,-2.1 0.7,-4.1 1,-6.2 0.3,-2.1 0.6,-4.2 0.9,-6.3 -0.1,-0.7 -0.1,-1.4 -0.2,-2.2 0,-0.7 -0.2,-1.4 -0.4,-2 -0.5,-0.4 -1,-0.6 -1.5,-0.8 -0.5,-0.2 -1.1,-0.3 -1.7,-0.3 -0.6,0.3 -1.2,0.6 -1.8,0.9 -0.6,0.3 -1.2,0.7 -1.7,1.1 l -0.5,0.9 v 3.3 c -0.2,2.3 -0.4,4.5 -0.6,6.8 -0.2,2.3 -0.6,4.4 -1.4,6.5 -0.2,0.1 -0.5,0.2 -0.8,0.2 -0.3,-0.1 -0.5,-0.3 -0.7,-0.6 v -0.4 c -0.3,0 -0.6,0 -0.9,-0.2 0.1,0.5 0,0.9 -0.4,1.2 -0.2,0.1 -0.5,0.2 -0.8,0.1 l -0.6,-0.5 v -0.3 h -0.1 l -0.3,0.3 -0.3,0.2 -0.4,0.4 -0.5,0.1 -0.6,-0.2 -0.6,0.2 -0.6,-0.4 -0.2,-0.7 c 0.4,-2.9 0.8,-5.7 1.2,-8.5 0.4,-2.9 0.7,-5.8 0.8,-8.7 -0.2,-0.7 -0.4,-1.3 -0.8,-1.8 -0.4,-0.2 -0.8,-0.3 -1.3,-0.4 -0.4,-0.1 -0.9,-0.1 -1.4,0 -0.8,0 -1.4,0.4 -1.9,1.2 -1.5,2.1 -2.3,4.5 -2.4,7.1 0,2.6 -0.1,5.2 -0.4,7.8 v 2.9 l -0.3,0.6 c -0.2,0.2 -0.5,0.2 -0.8,0.2 l -0.5,-0.3 -0.2,-0.5 H 347 c -0.2,0.2 -0.5,0.3 -0.9,0.3 -0.3,-0.1 -0.5,-0.3 -0.6,-0.6 v -0.4 h -0.1 l -0.5,0.4 c 0.1,0.6 0,1.2 -0.4,1.6 -0.2,0.1 -0.5,0.2 -0.8,0.1 l -0.6,-0.5 v -1.2 H 343 c -0.2,0.2 -0.5,0.2 -0.8,0.2 l -0.8,-0.5 c -0.2,-0.3 -0.3,-0.7 -0.3,-1.1 -0.2,0 -0.4,-0.1 -0.6,-0.4 -0.5,-0.6 -0.7,-1.4 -0.7,-2.3 0.2,-3.4 0.7,-6.8 1.3,-10.1 0.7,-3.4 1.7,-6.6 3.2,-9.7 0.3,-0.2 0.7,-0.3 1.1,-0.3 l 0.6,-1.1 c 0.2,-0.2 0.5,-0.2 0.8,-0.2 l 0.5,0.3 c 0.2,0.2 0.3,0.5 0.3,0.8 v 0.3 0 c 0.2,-0.2 0.5,-0.3 0.8,-0.3 l 0.4,0.1 0.4,-0.1 0.5,0.2 0.4,-0.3 h 0.5 l 0.5,0.3 c 0.2,0.2 0.3,0.5 0.3,0.8 l -0.1,0.2 c 0.2,0.2 0.3,0.5 0.3,0.8 l -0.2,0.7 h 0.1 c 1,-0.4 2,-0.6 3,-0.8 1,-0.2 2.1,-0.3 3.2,-0.2 0.8,0.1 1.7,0.3 2.4,0.6 0.8,0.3 1.5,0.7 2.2,1.3 l 1.1,1.3 c 1.5,-1.1 3,-2 4.7,-2.6 1.7,-0.6 3.4,-1 5.3,-1 0.9,0 1.7,0.2 2.5,0.5 0.8,0.3 1.5,0.8 2.2,1.4 v 0.2 h 0.1 c 1.1,1.2 1.7,2.5 2,4 0.2,1 0.4,2.5 0.5,4 z" id="path2165" style="fill: rgb(124, 253, 160);"/>
        <path class="st1" d="m 408,391.9 c -2.1,4.8 -3.7,9.7 -5,14.7 -1.2,5.1 -2.1,10.1 -2.7,15.2 l -0.6,0.2 c 0,0.9 -0.2,1.7 -0.6,2.5 -0.2,0.1 -0.4,0.2 -0.7,0.1 l -0.5,-0.3 -0.3,-0.6 -0.5,-0.1 c 0.1,0.6 0,1.2 -0.3,1.7 -0.2,0.2 -0.5,0.2 -0.8,0.2 l -0.5,-0.3 -0.2,-0.6 c -0.3,0 -0.6,0 -0.9,-0.2 -0.2,0.2 -0.5,0.3 -0.8,0.3 l -0.5,-0.3 -0.3,-0.7 0.1,-1.3 -0.2,-0.1 -0.6,0.1 -0.5,-0.3 c -0.2,-0.4 -0.3,-0.9 -0.2,-1.4 0.1,-1 0.2,-1.9 0.4,-2.8 0.2,-0.9 0.4,-1.8 0.6,-2.8 h -0.1 c -0.2,0.2 -0.5,0.3 -0.8,0.3 l -0.4,-0.1 -0.1,0.2 c -0.2,0.2 -0.5,0.3 -0.8,0.3 H 390 c 0,0.3 0,0.6 -0.3,0.9 -0.2,0.2 -0.5,0.2 -0.9,0.2 l -0.4,-0.3 c -1.4,-2.7 -2.4,-5.4 -2.9,-8.3 -0.5,-2.9 -0.8,-5.8 -0.9,-8.8 v -3.1 c 0,-1.1 0.1,-2.1 0.2,-3.2 0.1,-1.1 0.3,-2.1 0.6,-3.1 0.2,-0.2 0.5,-0.2 0.8,-0.2 h 0.3 l 0.3,-0.6 c 0.2,-0.2 0.5,-0.2 0.8,-0.2 l 0.5,0.3 c 0.2,0.2 0.3,0.5 0.3,0.8 v 0.3 l 0.6,0.1 c 0,-0.4 0.1,-0.7 0.3,-0.9 0.2,-0.2 0.5,-0.2 0.8,-0.2 l 0.5,0.3 c 0.2,0.2 0.3,0.5 0.3,0.9 v 0.4 l 0.3,0.2 0.3,0.5 v 2.4 c 0.1,2.4 0.5,4.7 1.1,7.1 0.6,2.4 1.3,4.6 2.3,6.8 h 0.2 c 1,-2.6 2,-5.1 3.1,-7.7 1.1,-2.5 2.4,-5 3.7,-7.4 l 0.6,-0.3 c 0.2,-0.5 0.5,-1 0.7,-1.4 0.2,-0.5 0.5,-0.9 0.8,-1.4 0.3,-0.2 0.6,-0.2 1,-0.2 h 0.3 0.4 l 0.5,0.3 c 0.2,0.2 0.3,0.5 0.3,0.9 h 0.2 c 0,0.1 0.1,0.2 0.4,0.2 l 0.6,-0.1 0.5,0.3 c -0.3,0.1 -0.2,0.3 -0.2,0.6 z" id="path2167" style="fill: rgb(124, 253, 160);"/>
        <path class="st2" d="m 134.8,393.6 c -1.8,-5.5 -3.6,-11 -5.5,-16.4 -0.2,-0.2 -0.5,-0.3 -0.9,-0.3 l -0.3,-0.4 0.2,-0.5 c 0,-0.3 -0.1,-0.6 -0.3,-0.8 l -0.7,-0.4 -0.5,0.1 -0.5,0.4 -0.5,0.3 -0.8,1.3 -0.2,-0.1 -0.5,0.1 c -0.6,0.5 -1.1,1.1 -1.5,1.7 l -0.5,-0.2 c -0.3,0 -0.6,0 -0.8,0.2 -2.7,4.4 -5.2,8.9 -7.4,13.6 -2.2,4.6 -4.2,9.4 -6,14.2 v 0.4 c 0.1,0.3 0.3,0.5 0.6,0.6 l -0.8,2.2 c 0,0.3 0,0.6 0.2,0.8 l 0.6,0.3 c 0.3,0 0.5,-0.1 0.7,-0.3 l 0.2,0.1 0.5,0.3 c 0.3,0 0.6,-0.1 0.9,-0.3 h 0.1 l -0.2,1.1 c 0,0.3 0,0.6 0.1,0.8 0.2,0.3 0.5,0.4 0.8,0.4 l -0.1,0.5 0.2,0.7 c 0.3,0.2 0.7,0.4 1.1,0.5 0.4,0.1 0.7,0 1,-0.3 0.7,-2 1.4,-4.1 2.1,-6.1 0.8,-2.1 1.5,-4.2 2.2,-6.2 1.7,-0.4 3.3,-0.9 5,-1.4 1.7,-0.5 3.3,-1 5,-1.5 0.3,-0.3 0.4,-0.6 0.3,-1 h 0.1 0.3 c 0.5,2.8 1.1,5.5 1.6,8.3 0.5,2.8 1.1,5.5 1.8,8.2 l 0.4,0.3 c 0.4,0.1 0.6,0 0.9,-0.2 l 0.3,-0.5 -0.1,-0.8 V 413 l 0.6,-0.2 0.3,-0.5 h 0.1 0.1 c 0,0.6 0.1,1.3 0.4,1.8 0.3,0.2 0.7,0.4 1.1,0.4 0.6,-0.2 1.2,-0.3 1.8,-0.5 l 0.4,-0.5 c 0,-0.4 -0.1,-0.9 -0.3,-1.3 -0.1,-0.4 -0.3,-0.8 -0.4,-1.2 v -0.2 h 0.2 0.6 c 0.3,-0.1 0.5,-0.3 0.6,-0.6 -1.3,-5.6 -2.8,-11.1 -4.6,-16.6 z m -6.5,0.4 c -1.2,0.1 -2.5,0.3 -3.7,0.6 -1.2,0.2 -2.5,0.5 -3.7,0.7 h -0.2 c 0.8,-2.3 1.6,-4.6 2.4,-6.9 0.9,-2.3 1.7,-4.6 2.7,-6.8 h 0.1 l 2.4,12.2 z" id="path2169" style="fill: rgb(141, 85, 250);"/>
        <path class="st2" d="m 167,394.9 -0.3,0.5 c -0.2,0.2 -0.5,0.3 -0.8,0.3 l -0.5,-0.2 v -0.1 c -1.1,-0.7 -2.2,-1.2 -3.4,-1.6 -1.2,-0.4 -2.5,-0.5 -3.8,-0.5 -0.7,0 -1.4,0.1 -2,0.3 -0.6,0.2 -1.2,0.6 -1.6,1.3 -1.3,1.4 -2.3,3 -3,4.7 -0.7,1.7 -1.1,3.5 -1.1,5.4 0.1,0.8 0.3,1.5 0.8,2.2 0.3,0.3 0.8,0.4 1.2,0.4 h 1.4 c 1.1,-0.5 2.2,-1.1 3.3,-1.7 1.1,-0.6 2.2,-1.1 3.3,-1.6 0.3,0.1 0.5,0.3 0.6,0.6 v 0.5 h 0.4 c 0.5,-0.4 1.2,-0.7 1.8,-0.8 l 0.5,0.3 c 0.3,0.3 0.4,0.7 0.4,1.1 l -0.3,0.5 -0.7,0.5 0.3,0.2 v 0.1 h 0.1 l 0.2,0.7 -0.4,0.6 -0.4,0.3 v 0.5 c 0.1,0.2 0.2,0.5 0.2,0.8 -0.1,0.3 -0.3,0.5 -0.6,0.6 l -0.1,0.6 h 0.1 l 1.6,-0.6 c 0.3,0 0.5,0.2 0.7,0.4 l 0.2,0.7 -0.3,0.5 c -1.7,0.7 -3.4,1.3 -5.2,1.7 -1.7,0.4 -3.5,0.8 -5.3,0.9 h -2 c -1.2,-0.1 -2.3,-0.3 -3.3,-0.7 -1.1,-0.4 -2,-1 -2.9,-1.7 v -0.1 l -0.7,-0.6 c -0.8,-0.8 -1.3,-1.7 -1.6,-2.6 -0.2,-1 -0.4,-2 -0.4,-3.1 0.2,-2.6 1,-5 2.2,-7.4 1.2,-2.3 2.8,-4.4 4.8,-6.2 1.4,-1.3 2.9,-2.3 4.6,-3 1.7,-0.8 3.5,-1.1 5.4,-1.1 0.8,0.1 1.5,0.2 2.1,0.5 0.7,0.3 1.3,0.6 1.9,1.1 0.2,0.5 0.4,1 0.6,1.5 0.2,0.5 0.4,1 0.4,1.6 0.6,0.2 1.2,0.6 1.7,1.1 -0.1,0 -0.1,0.3 -0.1,0.6 z" id="path2171" style="fill: rgb(141, 85, 250);"/>
        <path class="st2" d="m 193.7,394.9 -0.3,0.5 c -0.2,0.2 -0.5,0.3 -0.8,0.3 l -0.5,-0.2 v -0.1 c -1,-0.7 -2.2,-1.2 -3.4,-1.6 -1.2,-0.4 -2.5,-0.5 -3.8,-0.5 -0.7,0 -1.4,0.1 -2,0.3 -0.6,0.2 -1.2,0.6 -1.6,1.3 -1.3,1.4 -2.3,3 -3,4.7 -0.7,1.7 -1.1,3.5 -1.1,5.4 0.1,0.8 0.3,1.5 0.8,2.2 0.3,0.3 0.8,0.4 1.2,0.4 h 1.4 c 1.1,-0.5 2.2,-1.1 3.3,-1.7 1.1,-0.6 2.2,-1.1 3.3,-1.6 0.3,0.1 0.5,0.3 0.6,0.6 v 0.5 h 0.4 c 0.5,-0.4 1.2,-0.7 1.8,-0.8 l 0.5,0.3 c 0.3,0.3 0.4,0.7 0.4,1.1 l -0.3,0.5 -0.7,0.5 0.3,0.2 v 0.1 h 0.1 l 0.2,0.7 -0.4,0.6 -0.4,0.3 -0.1,0.5 c 0.1,0.2 0.2,0.5 0.2,0.8 -0.1,0.3 -0.3,0.5 -0.6,0.6 l -0.1,0.6 h 0.1 l 1.6,-0.6 c 0.3,0 0.5,0.2 0.7,0.4 l 0.2,0.7 -0.3,0.5 c -1.7,0.7 -3.4,1.3 -5.2,1.7 -1.7,0.4 -3.5,0.8 -5.3,0.9 h -2 c -1.2,-0.1 -2.3,-0.3 -3.3,-0.7 -1.1,-0.4 -2,-1 -2.9,-1.7 v -0.1 l -0.7,-0.6 c -0.8,-0.8 -1.3,-1.7 -1.6,-2.6 -0.2,-1 -0.4,-2 -0.4,-3.1 0.2,-2.6 1,-5 2.2,-7.4 1.2,-2.3 2.8,-4.4 4.8,-6.2 1.4,-1.3 2.9,-2.3 4.6,-3 1.7,-0.8 3.5,-1.1 5.4,-1.1 0.8,0.1 1.5,0.2 2.1,0.5 0.7,0.3 1.3,0.6 1.9,1.1 0.2,0.5 0.4,1 0.6,1.5 0.2,0.5 0.4,1 0.4,1.6 0.6,0.2 1.2,0.6 1.7,1.1 0,0 0.1,0.3 0,0.6 z" id="path2173" style="fill: rgb(141, 85, 250);"/>
        <path class="st2" d="m 225.3,398.1 c 0,-0.5 -0.1,-0.9 -0.4,-1.3 l -0.5,-0.3 c -0.3,0 -0.6,0 -0.8,0.2 h -0.3 l 0.1,-0.3 c 0,-0.3 -0.1,-0.6 -0.3,-0.8 l -0.5,-0.3 0.3,-0.5 c -0.1,-0.9 -0.4,-1.7 -0.8,-2.4 -0.4,-0.8 -0.9,-1.5 -1.5,-2.2 l -0.5,-0.4 v -0.1 c -0.8,-0.6 -1.6,-1.2 -2.5,-1.5 -0.9,-0.4 -1.8,-0.7 -2.8,-0.8 -2,-0.1 -4,0.2 -5.8,0.9 -1.8,0.6 -3.5,1.7 -5,3.1 -2.2,2.2 -3.9,4.6 -5.2,7.3 -1.3,2.7 -2.1,5.5 -2.2,8.5 -0.1,1.3 0,2.5 0.4,3.6 0.4,1.1 0.9,2.2 1.4,3.2 0.9,0.9 1.9,1.5 3.1,1.8 1.2,0.3 2.3,0.6 3.5,0.8 h 2.3 c 1.9,-0.1 3.8,-0.6 5.6,-1.2 1.8,-0.6 3.5,-1.6 5.1,-2.9 l 0.3,-0.5 c 0,-0.3 -0.1,-0.5 -0.3,-0.7 1.9,-1.8 3.4,-3.8 4.6,-6.1 1.2,-2.3 2.1,-4.7 2.7,-7.1 z m -5.9,-3.3 -0.3,0.1 c -0.3,0.6 -0.5,1.3 -0.7,2.1 l -0.3,0.2 -0.6,1 c -1,1.8 -2.1,3.5 -3.2,5.2 -1.1,1.7 -2.6,3 -4.5,3.9 -0.8,0.4 -1.6,0.8 -2.4,1 -0.8,0.3 -1.7,0.4 -2.5,0.5 -0.9,0 -1.6,-0.1 -2.4,-0.4 l -0.2,-0.9 c -0.1,-1.6 0.2,-3 0.7,-4.5 0.5,-1.4 1.4,-2.7 2.5,-3.8 h 0.1 l 0.9,-1.1 c 1.3,-1.3 2.6,-2.4 4.1,-3.4 1.5,-1 3.1,-1.7 4.9,-1.9 0.4,0 0.7,0.2 1.1,0.4 l 0.9,1.2 0.6,0.3 h 0.4 c 0.3,-0.1 0.4,-0.3 0.5,-0.6 z" id="path2175" style="fill: rgb(141, 85, 250);"/>
        <path class="st2" d="m 270.1,400.6 v 3.2 c -0.1,1.8 -0.3,3.7 -0.6,5.5 -0.3,1.8 -0.6,3.6 -0.9,5.3 -0.4,0.2 -0.8,0.2 -1.2,0.2 h -0.2 l -0.6,0.2 -0.6,-0.4 v -0.1 h -0.1 l -0.2,0.5 c -0.3,0.2 -0.6,0.3 -1,0.3 -0.3,-0.1 -0.5,-0.3 -0.6,-0.6 v -0.4 -0.2 h -0.2 l -0.3,0.1 -0.7,-0.4 c -0.2,0.6 -0.4,1.1 -0.8,1.6 -0.2,0.2 -0.5,0.2 -0.8,0.2 l -0.5,-0.3 c -0.2,-0.2 -0.2,-0.5 -0.2,-0.8 v -0.3 c -0.2,-0.1 -0.4,-0.3 -0.5,-0.5 l -0.1,-0.5 c 0.3,-2.1 0.7,-4.1 1,-6.2 0.3,-2.1 0.6,-4.2 0.9,-6.3 -0.1,-0.7 -0.1,-1.4 -0.2,-2.2 0,-0.7 -0.2,-1.4 -0.4,-2 -0.5,-0.4 -1,-0.6 -1.5,-0.8 -0.5,-0.2 -1.1,-0.3 -1.7,-0.3 -0.6,0.3 -1.2,0.6 -1.8,0.9 -0.6,0.3 -1.2,0.7 -1.7,1.1 l -0.5,0.9 v 3.3 c -0.2,2.3 -0.4,4.5 -0.6,6.8 -0.2,2.3 -0.6,4.4 -1.4,6.5 -0.2,0.1 -0.5,0.2 -0.8,0.2 -0.3,-0.1 -0.5,-0.3 -0.7,-0.6 l -0.1,-0.4 c -0.3,0 -0.6,0 -0.9,-0.2 0.1,0.5 0,0.9 -0.4,1.2 -0.2,0.1 -0.5,0.2 -0.8,0.1 l -0.6,-0.5 v -0.3 h -0.1 l -0.3,0.3 -0.3,0.2 -0.4,0.4 -0.5,0.1 -0.6,-0.2 -0.6,0.2 -0.6,-0.4 -0.2,-0.7 c 0.4,-2.9 0.8,-5.7 1.2,-8.5 0.5,-2.9 0.7,-5.8 0.8,-8.7 -0.2,-0.7 -0.4,-1.3 -0.8,-1.8 -0.4,-0.2 -0.8,-0.3 -1.3,-0.4 -0.4,-0.1 -0.9,-0.1 -1.4,0 -0.8,0 -1.4,0.4 -1.9,1.2 -1.5,2.1 -2.3,4.5 -2.4,7.1 0,2.6 -0.2,5.2 -0.4,7.8 v 2.9 l -0.3,0.6 c -0.2,0.2 -0.5,0.2 -0.8,0.2 l -0.5,-0.3 -0.2,-0.5 h -0.1 c -0.2,0.2 -0.5,0.3 -0.9,0.3 -0.3,-0.1 -0.5,-0.3 -0.6,-0.6 v -0.4 h -0.1 l -0.5,0.4 c 0.1,0.6 0,1.2 -0.4,1.6 -0.2,0.1 -0.5,0.2 -0.8,0.1 l -0.6,-0.5 v -1.2 h -0.1 c -0.2,0.2 -0.5,0.2 -0.8,0.2 l -0.8,-0.5 c -0.2,-0.3 -0.3,-0.7 -0.3,-1.1 -0.2,0 -0.4,-0.1 -0.6,-0.4 -0.5,-0.6 -0.7,-1.4 -0.7,-2.3 0.2,-3.4 0.6,-6.8 1.3,-10.1 0.7,-3.4 1.7,-6.6 3.2,-9.7 0.3,-0.2 0.7,-0.3 1.1,-0.3 l 0.6,-1.1 c 0.2,-0.2 0.5,-0.2 0.8,-0.2 l 0.5,0.3 c 0.2,0.2 0.3,0.5 0.3,0.8 v 0.3 0 c 0.2,-0.2 0.5,-0.3 0.8,-0.3 l 0.4,0.1 0.4,-0.1 0.5,0.2 0.4,-0.3 h 0.5 l 0.5,0.3 c 0.2,0.2 0.3,0.5 0.3,0.8 v 0.2 c 0.2,0.2 0.3,0.5 0.3,0.8 l -0.2,0.7 h 0.1 c 1,-0.4 1.9,-0.6 3,-0.8 1,-0.2 2.1,-0.3 3.2,-0.2 0.9,0.1 1.7,0.3 2.4,0.6 0.8,0.3 1.5,0.7 2.1,1.3 l 1.1,1.3 c 1.5,-1.1 3,-2 4.7,-2.6 1.7,-0.6 3.4,-1 5.3,-1 0.9,0 1.7,0.2 2.5,0.5 0.8,0.3 1.5,0.8 2.2,1.4 v 0.2 h 0.1 c 1.1,1.2 1.7,2.5 2,4 0.5,1 0.7,2.5 0.8,4 z" id="path2177" style="fill: rgb(141, 85, 250);"/>
        <path class="st2" d="m 305.1,378 0.1,-0.5 c 0,-0.3 -0.1,-0.6 -0.3,-0.8 l -0.5,-0.3 h -0.5 l -0.4,0.4 h -0.1 l 0.2,-0.5 c 0,-0.3 -0.1,-0.6 -0.3,-0.8 l -0.5,-0.3 c -0.3,0 -0.6,0 -0.8,0.2 l -0.4,0.8 h -0.1 l -0.5,-0.9 -0.5,-0.3 c -0.3,0 -0.6,0 -0.8,0.2 -1.2,2.3 -2.1,4.8 -2.9,7.3 -0.7,2.5 -1.3,5 -1.8,7.6 -0.6,-0.5 -1.2,-0.9 -1.9,-1.2 -0.7,-0.3 -1.4,-0.5 -2.2,-0.6 -2,0.1 -3.9,0.6 -5.8,1.4 -1.8,0.8 -3.5,1.9 -5,3.3 -1.7,1.7 -3.1,3.4 -4.3,5.3 -1.1,1.9 -1.9,4.7 -2.3,8.5 -0.1,1.1 0,2.1 0.3,3.1 0.3,1 0.8,1.8 1.5,2.6 0.6,0.6 1.3,1 2,1.4 0.8,0.3 1.6,0.5 2.4,0.6 2.3,0 4.6,-0.4 6.8,-1 2.2,-0.6 4.3,-1.6 6.4,-2.8 h 0.1 v 1.4 c 0,0.4 0.1,0.9 0.3,1.3 l 0.4,0.3 c 0.3,0 0.5,0 0.7,-0.1 h 0.1 c 0,0.5 0.1,0.9 0.3,1.3 l 0.6,0.3 0.7,-0.2 0.3,-0.5 h 0.6 l 0.1,0.3 0.5,0.4 c 0.3,0 0.6,0 0.8,-0.2 0.2,-0.2 0.3,-0.5 0.3,-0.9 l 0.6,0.3 0.3,-0.1 h 0.2 l 0.1,0.2 0.5,0.3 c 0.3,0 0.6,0 0.8,-0.2 0.2,-5.8 0.6,-11.8 1.1,-18.2 0.5,-6.4 1.4,-12.4 2.8,-18 0.2,0 0.1,-0.3 0,-0.4 z M 294,400.1 c -0.2,2.3 -0.3,4.4 -0.4,6.2 l -1.4,1 h -0.1 l -0.1,-0.3 -0.6,-0.3 -0.4,0.1 -0.6,-0.1 c -0.7,0.2 -1.3,0.6 -2,1 -0.6,0.4 -1.2,0.7 -1.8,1 -0.5,0.3 -1.1,0.5 -1.6,0.8 -0.5,0.2 -1.1,0.4 -1.7,0.5 -0.3,0.1 -0.6,0 -0.8,-0.2 -0.4,-0.4 -0.8,-0.8 -1,-1.3 -0.2,-0.5 -0.3,-1.1 -0.3,-1.6 0.4,-3 1,-5.2 1.7,-6.4 0.7,-1.3 1.8,-2.6 3.1,-3.9 0.9,-1 1.9,-1.8 3,-2.6 1.1,-0.8 2.3,-1.2 3.5,-1.4 l 0.7,0.2 c 0,0.3 0.1,0.5 0.3,0.7 0.2,0.2 0.5,0.3 0.9,0.3 l 0.1,0.2 h 0.1 c -0.2,1.6 -0.4,3.7 -0.6,6.1 z" id="path2179" style="fill: rgb(141, 85, 250);"/>
        <path class="st2" d="m 333.8,406.1 0.2,-0.3 0.4,-0.6 c 0,-0.3 0,-0.6 -0.3,-0.9 l -0.4,-0.2 c -0.5,-0.1 -0.9,0.1 -1.2,0.5 h -0.1 l -0.2,-0.3 -0.2,-0.3 c -2,1.1 -4,2.1 -6.1,3.1 -2.1,1 -4.3,1.7 -6.6,2 -0.6,0 -1.2,-0.1 -1.7,-0.3 -0.5,-0.2 -1,-0.4 -1.5,-0.8 -0.5,-0.4 -0.9,-0.9 -1.1,-1.4 -0.2,-0.5 -0.4,-1.1 -0.5,-1.7 v -0.5 l 1.7,-0.1 h 0.3 l 0.1,0.3 0.5,0.3 c 0.4,0 0.8,0 1.1,-0.2 h 0.2 l 0.2,0.5 0.5,0.3 c 0.3,0 0.6,0 0.9,-0.2 l 0.5,0.1 c 1.8,-0.7 3.6,-1.5 5.3,-2.5 1.7,-1 3.3,-2.1 4.9,-3.1 0.7,-0.6 1.3,-1.3 1.7,-2 0.4,-0.8 0.7,-1.6 0.8,-2.5 0,-0.7 -0.1,-1.3 -0.4,-1.9 -0.2,-0.6 -0.5,-1.2 -1,-1.7 -0.8,-0.8 -1.7,-1.4 -2.7,-1.7 -1,-0.4 -2,-0.6 -3.1,-0.7 -0.6,0 -1.2,0 -1.7,0 -0.6,0 -1.1,0.1 -1.6,0.2 h -0.2 v -0.2 L 322,389 c -1.6,0.2 -3.1,0.7 -4.4,1.5 -1.3,0.8 -2.6,1.8 -3.7,2.9 l -0.2,0.3 -0.2,0.1 c -1.6,1.6 -3,3.5 -4.1,5.5 -1.1,2 -1.8,4.1 -2,6.4 0,1.2 0.1,2.3 0.6,3.3 0.4,1 1,1.9 1.7,2.7 l 0.2,0.2 c 1,0.8 2.1,1.5 3.3,2 1.2,0.6 2.4,0.9 3.7,0.9 h 2.3 c 2.5,-0.2 4.9,-0.7 7.3,-1.5 2.4,-0.9 4.6,-1.9 6.8,-3.1 l 0.3,-0.6 -0.2,-0.7 0.4,-0.4 0.3,-0.5 0.4,-0.4 0.3,-0.4 v -0.6 c -0.6,-0.3 -0.8,-0.4 -1,-0.5 z m -17.3,-8.5 c 0.7,-1.2 1.5,-2.3 2.4,-3.3 h 0.1 l 0.1,-0.1 c 0.7,-0.3 1.4,-0.6 2.1,-0.8 0.8,-0.2 1.5,-0.4 2.3,-0.5 0.6,0 1.1,0 1.7,0 0.5,0.1 1,0.3 1.5,0.6 l 0.4,0.7 -0.2,0.8 c -0.5,0.7 -1,1.3 -1.6,1.7 -0.6,0.4 -1.3,0.9 -2,1.2 -1.3,0.7 -2.6,1.3 -3.9,1.8 -1.3,0.5 -2.6,1 -3.9,1.4 h -0.3 c 0,-1.1 0.6,-2.3 1.3,-3.5 z" id="path2181" style="fill: rgb(141, 85, 250);"/>
        <path class="st2" d="m 377.7,400.6 v 3.2 c -0.1,1.8 -0.3,3.7 -0.6,5.5 -0.3,1.8 -0.6,3.6 -0.9,5.3 -0.4,0.2 -0.8,0.2 -1.2,0.2 h -0.2 l -0.6,0.2 -0.6,-0.4 v -0.1 h -0.1 l -0.2,0.5 c -0.3,0.2 -0.6,0.3 -1,0.3 -0.3,-0.1 -0.5,-0.3 -0.6,-0.6 l -0.1,-0.4 0.1,-0.2 h -0.2 l -0.3,0.1 -0.7,-0.4 c -0.2,0.6 -0.4,1.1 -0.8,1.6 -0.2,0.2 -0.5,0.2 -0.8,0.2 l -0.5,-0.3 c -0.2,-0.2 -0.2,-0.5 -0.2,-0.8 l 0.1,-0.3 c -0.2,-0.1 -0.4,-0.3 -0.5,-0.5 v -0.5 c 0.3,-2.1 0.7,-4.1 1,-6.2 0.3,-2.1 0.6,-4.2 0.9,-6.3 -0.1,-0.7 -0.1,-1.4 -0.2,-2.2 0,-0.7 -0.2,-1.4 -0.4,-2 -0.5,-0.4 -1,-0.6 -1.5,-0.8 -0.5,-0.2 -1.1,-0.3 -1.7,-0.3 -0.6,0.3 -1.2,0.6 -1.8,0.9 -0.6,0.3 -1.2,0.7 -1.7,1.1 l -0.5,0.9 v 3.3 c -0.2,2.3 -0.4,4.5 -0.6,6.8 -0.2,2.3 -0.6,4.4 -1.4,6.5 -0.2,0.1 -0.5,0.2 -0.8,0.2 -0.3,-0.1 -0.5,-0.3 -0.7,-0.6 v -0.4 c -0.3,0 -0.6,0 -0.9,-0.2 0.1,0.5 0,0.9 -0.4,1.2 -0.2,0.1 -0.5,0.2 -0.8,0.1 l -0.6,-0.5 v -0.3 h -0.1 l -0.3,0.3 -0.3,0.2 -0.4,0.4 -0.5,0.1 -0.6,-0.2 -0.6,0.2 -0.6,-0.4 -0.2,-0.7 c 0.4,-2.9 0.8,-5.7 1.2,-8.5 0.4,-2.9 0.7,-5.8 0.8,-8.7 -0.2,-0.7 -0.4,-1.3 -0.8,-1.8 -0.4,-0.2 -0.8,-0.3 -1.3,-0.4 -0.4,-0.1 -0.9,-0.1 -1.4,0 -0.8,0 -1.4,0.4 -1.9,1.2 -1.5,2.1 -2.3,4.5 -2.4,7.1 0,2.6 -0.1,5.2 -0.4,7.8 v 2.9 l -0.3,0.6 c -0.2,0.2 -0.5,0.2 -0.8,0.2 l -0.5,-0.3 -0.2,-0.5 H 344 c -0.2,0.2 -0.5,0.3 -0.9,0.3 -0.3,-0.1 -0.5,-0.3 -0.6,-0.6 v -0.4 h -0.1 l -0.5,0.4 c 0.1,0.6 0,1.2 -0.4,1.6 -0.2,0.1 -0.5,0.2 -0.8,0.1 l -0.6,-0.5 v -1.2 H 340 c -0.2,0.2 -0.5,0.2 -0.8,0.2 l -0.8,-0.5 c -0.2,-0.3 -0.3,-0.7 -0.3,-1.1 -0.2,0 -0.4,-0.1 -0.6,-0.4 -0.5,-0.6 -0.7,-1.4 -0.7,-2.3 0.2,-3.4 0.7,-6.8 1.3,-10.1 0.7,-3.4 1.7,-6.6 3.2,-9.7 0.3,-0.2 0.7,-0.3 1.1,-0.3 l 0.6,-1.1 c 0.2,-0.2 0.5,-0.2 0.8,-0.2 l 0.5,0.3 c 0.2,0.2 0.3,0.5 0.3,0.8 v 0.3 0 c 0.2,-0.2 0.5,-0.3 0.8,-0.3 l 0.4,0.1 0.4,-0.1 0.5,0.2 0.4,-0.3 h 0.5 l 0.5,0.3 c 0.2,0.2 0.3,0.5 0.3,0.8 l -0.1,0.2 c 0.2,0.2 0.3,0.5 0.3,0.8 l -0.2,0.7 h 0.1 c 1,-0.4 2,-0.6 3,-0.8 1,-0.2 2.1,-0.3 3.2,-0.2 0.8,0.1 1.7,0.3 2.4,0.6 0.8,0.3 1.5,0.7 2.2,1.3 l 1.1,1.3 c 1.5,-1.1 3,-2 4.7,-2.6 1.7,-0.6 3.4,-1 5.3,-1 0.9,0 1.7,0.2 2.5,0.5 0.8,0.3 1.5,0.8 2.2,1.4 v 0.2 h 0.1 c 1.1,1.2 1.7,2.5 2,4 0.2,1 0.4,2.5 0.5,4 z" id="path2183" style="fill: rgb(141, 85, 250);"/>
        <path class="st2" d="m 404.9,388.9 c -2.1,4.8 -3.7,9.7 -5,14.7 -1.2,5.1 -2.1,10.1 -2.7,15.2 l -0.6,0.2 c 0,0.9 -0.2,1.7 -0.6,2.5 -0.2,0.1 -0.4,0.2 -0.7,0.1 l -0.5,-0.3 -0.3,-0.6 -0.5,-0.1 c 0.1,0.6 0,1.2 -0.3,1.7 -0.2,0.2 -0.5,0.2 -0.8,0.2 l -0.5,-0.3 -0.2,-0.6 c -0.3,0 -0.6,0 -0.9,-0.2 -0.2,0.2 -0.5,0.3 -0.8,0.3 l -0.5,-0.3 -0.3,-0.7 0.1,-1.3 -0.2,-0.1 -0.6,0.1 -0.5,-0.3 c -0.2,-0.4 -0.3,-0.9 -0.2,-1.4 0.1,-1 0.2,-1.9 0.4,-2.8 0.2,-0.9 0.4,-1.8 0.6,-2.8 h -0.1 c -0.2,0.2 -0.5,0.3 -0.8,0.3 l -0.4,-0.1 -0.1,0.2 c -0.2,0.2 -0.5,0.3 -0.8,0.3 h -0.2 c 0,0.3 0,0.6 -0.3,0.9 -0.2,0.2 -0.5,0.2 -0.9,0.2 l -0.4,-0.3 c -1.4,-2.7 -2.4,-5.4 -2.9,-8.3 -0.5,-2.9 -0.8,-5.8 -0.9,-8.8 v -3.1 c 0,-1.1 0.1,-2.1 0.2,-3.2 0.1,-1.1 0.3,-2.1 0.6,-3.1 0.2,-0.2 0.5,-0.2 0.8,-0.2 h 0.3 l 0.3,-0.6 c 0.2,-0.2 0.5,-0.2 0.8,-0.2 l 0.5,0.3 c 0.2,0.2 0.3,0.5 0.3,0.8 v 0.3 l 0.6,0.1 c 0,-0.4 0.1,-0.7 0.3,-0.9 0.2,-0.2 0.5,-0.2 0.8,-0.2 l 0.5,0.3 c 0.2,0.2 0.3,0.5 0.3,0.9 v 0.4 l 0.3,0.2 0.3,0.5 v 2.4 c 0.1,2.4 0.5,4.7 1.1,7.1 0.6,2.4 1.3,4.6 2.3,6.8 h 0.2 c 1,-2.6 2,-5.1 3.1,-7.7 1.1,-2.5 2.4,-5 3.7,-7.4 l 0.6,-0.3 c 0.2,-0.5 0.5,-1 0.7,-1.4 0.2,-0.5 0.5,-0.9 0.8,-1.4 0.3,-0.2 0.6,-0.2 1,-0.2 h 0.3 0.4 l 0.5,0.3 c 0.2,0.2 0.3,0.5 0.3,0.9 h 0.2 c 0,0.1 0.1,0.2 0.4,0.2 l 0.6,-0.1 0.5,0.3 c -0.3,0 -0.2,0.3 -0.2,0.6 z" id="path2185" style="fill: rgb(141, 85, 250);"/>
      </g>
      <g id="g2217">
        <path class="st0" d="M 347.8,126.7 C 321.7,100.6 287,86.2 250,86.2 c -37,0 -71.7,14.4 -97.8,40.5 -26.1,26.1 -40.5,60.8 -40.5,97.8 0,36.9 14.4,71.7 40.5,97.8 26.1,26.1 60.8,40.5 97.8,40.5 37,0 71.7,-14.4 97.8,-40.5 26.1,-26.1 40.5,-60.8 40.5,-97.8 0,-36.9 -14.5,-71.7 -40.5,-97.8 z M 245.3,153 c 0.5,-3.2 1.5,-6.2 3,-9 3.4,-1.2 6.5,-2.6 9.4,-4.1 1.4,1.1 3,1.6 4.8,1.6 l 1.4,-2.3 2.8,-0.9 c 2.3,-0.3 4.2,0.3 5.8,1.8 0.8,1.8 1,3.8 0.7,6 l -0.2,4.8 c 0.3,3.8 0.7,7.7 1.1,11.5 0.5,3.7 1,7.4 1.6,11 l -1.7,2.6 -2.8,0.9 -0.7,-0.2 c -1.2,1.5 -2.8,2.2 -4.6,1.8 l -2.1,-0.5 -2.5,0.2 -1.6,-0.7 c 0.3,1.5 -0.1,2.8 -1.1,3.9 -1.7,0.8 -3.5,1.2 -5.3,1.4 -2.6,0.2 -4.9,-0.5 -6.9,-1.8 -1.1,-2.5 -1.6,-5.1 -1.6,-8 v -9.7 l -0.2,-0.9 c 0.2,-3.2 0.4,-6.4 0.7,-9.4 z m -17.2,10.8 c -6.9,8.4 -13.5,17.2 -19.8,26.2 -6.1,9 -11.7,18.4 -16.8,28 h 0.7 l 1.4,-0.5 c 0.9,-2.8 2.6,-4.8 5.1,-6.2 h 1.8 l 2.3,0.9 c 0.6,-1.7 1.5,-3.2 2.8,-4.6 0.9,-0.6 2.1,-0.9 3.5,-0.7 l 2.1,1.4 0.9,3.2 h 0.5 l 2.1,-0.2 c 1.7,0.2 3.3,0.7 4.8,1.6 0.9,1.1 1.3,2.3 1.1,3.7 l -0.9,2.8 c 0.8,1.2 1.1,2.5 0.9,3.9 -4.6,12.9 -7.9,26 -9.9,39.3 -2,13.2 -3.8,26.4 -5.3,39.8 -1.7,0.8 -3.5,1.2 -5.3,1.4 0,1.2 -0.5,2.3 -1.6,3.2 -0.9,0.6 -2.1,0.8 -3.5,0.7 l -2.1,-1.4 -0.9,-2.8 h -0.7 l -1.6,0.2 -1.4,-0.5 -0.9,2.1 c -0.9,0.8 -2.1,1.1 -3.5,1.1 -2,0 -3.8,-0.5 -5.5,-1.6 -1.2,-2.9 -1.6,-6.1 -1.1,-9.7 l 0.2,-3.2 c -0.5,-1.5 -0.6,-3.1 -0.5,-4.8 1.2,-10.6 2.7,-21.1 4.4,-31.7 1.7,-10.6 4.1,-21 7.1,-31.3 H 188 c -4,8.3 -7.7,16.7 -11.3,25.3 -3.5,8.6 -6.7,17.2 -9.7,25.7 -0.9,0.6 -2,0.8 -3.2,0.7 l -2.1,-1.1 c -0.9,-1.1 -1.2,-2.5 -0.9,-4.1 l 0.9,-4.4 c -1.2,-1.8 -2.5,-3.5 -3.9,-5.1 V 259 c -1.8,0.5 -3.4,-0.1 -4.6,-1.6 -0.6,-1.2 -0.8,-2.7 -0.7,-4.4 l 0.2,-0.9 -0.7,-1.1 c -1.2,0.1 -2.3,-0.2 -3.2,-1.2 -0.8,-1.2 -1.2,-2.6 -1.2,-4.1 l 0.2,-2.1 c -1.5,0.3 -2.8,-0.1 -3.9,-1.4 l -0.9,-3 0.5,-2.1 c -1.1,-1.1 -1.5,-2.4 -1.2,-4.1 5.8,-14.7 12.9,-28.8 21.2,-42.3 8.4,-13.5 18.2,-25.9 29.2,-37.3 1.5,-1.4 3.1,-2.8 4.6,-4.1 1.7,-1.5 3.6,-2.3 5.8,-2.3 l 1.6,0.9 c 0.8,1.4 1.8,2.5 3.2,3.5 h 0.9 l 1.6,-0.2 2.5,1.6 c 1.1,1.1 2.1,2.3 3.2,3.7 v 0.9 h 0.7 l 2.5,-0.9 3,1.6 0.2,0.7 h 0.9 l 0.7,-0.2 2.8,1.4 c 1,1.2 1.3,2.4 1.2,3.8 z m 117.2,91.5 -3.2,1.6 -0.2,0.5 c -6.4,1.1 -13,2 -19.8,2.8 -6.6,0.6 -13.2,1.5 -19.8,2.5 -0.3,4.3 -0.6,8.7 -0.9,13.1 -0.3,4.3 -0.5,8.6 -0.7,12.9 V 307 l 0.2,4.4 c -0.5,1.4 -1.4,2.3 -2.8,2.8 h -2.3 c -1.4,-0.5 -2.3,-1.4 -2.8,-2.8 v -0.9 c -1.5,0.1 -2.8,-0.2 -3.9,-1.2 -0.8,-0.8 -1.1,-1.8 -0.9,-3 h -0.5 l -2.5,0.2 -1.6,-0.7 -2.5,0.2 c -1.1,-0.6 -2.1,-1.3 -3,-2.1 l -1.6,0.5 -2.3,4.8 c -0.9,0.8 -2.1,1.1 -3.4,0.9 l -1.8,-0.9 c -1.4,-2.3 -2.4,-4.7 -3,-7.1 -0.6,-2.6 -0.8,-5.4 -0.7,-8.3 0.3,-4.4 0.8,-8.9 1.4,-13.3 0.6,-4.4 1.2,-8.9 1.8,-13.3 h -0.7 c -4,0.8 -8,1.5 -12.2,2.3 -4.1,0.8 -8.2,1.6 -12.2,2.5 l -2.3,-1.1 -0.9,-2.1 H 239 c -1.1,0.6 -2.3,0.8 -3.7,0.7 -1.2,-0.5 -2.1,-1.3 -2.5,-2.5 l -0.2,-1.6 1.4,-2.8 4.1,-1.6 v -0.5 c -1.2,-1.1 -1.8,-2.4 -1.6,-3.9 l 1.6,-3 c -1.1,-0.3 -1.8,-1 -2.3,-2.1 l -0.2,-2.5 1.6,-2.3 c 5.7,-1.8 11.5,-3.2 17.5,-4.1 6.1,-1.1 12.2,-2.2 18.2,-3.2 l 3.4,-16.5 H 274 l -24.4,3.5 c -1.2,-0.5 -2.2,-1.3 -2.8,-2.5 l -0.2,-1.8 1.4,-2.8 c 1.4,-0.9 3,-1.4 4.8,-1.4 l 0.5,-2.1 -2.8,-1.4 -0.7,-1.8 h -0.7 l -2.8,0.2 -2.5,-2.3 -0.2,-2.3 1.4,-2.3 c 6.4,-2 12.9,-3.5 19.3,-4.6 6.4,-1.2 12.9,-2.4 19.3,-3.5 1.5,-4 3.1,-7.8 4.8,-11.5 1.7,-3.8 3.8,-7.5 6.2,-11 l 3.2,-0.9 1.1,0.2 0.9,-1.6 c 2.1,-1.1 4.4,-1.8 6.7,-2.3 l 2.5,1.6 0.2,0.7 h 0.5 c 1.1,-0.9 2.4,-1.2 3.9,-0.9 l 2.5,2.3 0.2,2.5 -0.5,1.6 1.8,1.2 c 0.6,1.1 0.8,2.3 0.7,3.7 l -3.7,10.8 h 1.8 l 11.5,-0.7 2.1,1.4 0.9,2.3 h 0.7 l 1.1,-0.2 2.8,1.6 c 0.6,1.1 0.8,2.3 0.7,3.7 -0.9,1.7 -1.8,3.5 -2.8,5.3 l -2.5,0.9 v 0.9 c 1.4,1.2 1.9,2.8 1.6,4.6 l -1.1,1.8 c -3.7,0.9 -7.5,1.5 -11.5,1.8 -4,0.3 -7.9,0.7 -11.7,1.1 -0.8,2.8 -1.4,5.5 -1.8,8.3 -0.5,2.8 -0.9,5.5 -1.4,8.3 h 0.5 c 5.5,-0.6 11,-1.2 16.5,-1.8 5.7,-0.6 11.3,-1 17,-1.1 1.2,0.5 2.1,1.3 2.5,2.5 l 0.2,2.1 -1.4,2.3 -2.3,0.9 -0.2,1.8 c 2.5,-0.5 4.5,0.1 6.2,1.6 1.4,2 2.1,4.2 2.3,6.7 0.5,1.9 0.1,3.6 -1,5 z m 3.2,-93.8 c -2.4,5.5 -4.9,11 -7.4,16.5 -1.1,0.6 -2.3,0.9 -3.7,0.7 l -2.5,-2.3 v -0.7 c -1.2,0 -2.4,-0.3 -3.4,-0.9 0.1,1.5 -0.2,2.8 -1.2,3.9 -1.1,0.8 -2.4,1.1 -3.9,0.9 -1.4,-0.5 -2.3,-1.4 -2.8,-2.8 l -0.2,-2.5 c -1.2,0 -2.3,-0.5 -3.2,-1.6 -0.9,-1.8 -1.2,-4 -0.9,-6.4 0.6,-5.1 1.8,-10 3.4,-14.7 1.8,-4.9 4.2,-9.5 7.1,-13.8 2.3,-1.4 4.8,-2.4 7.4,-3 2,0.2 3.8,0.8 5.5,1.8 l 0.7,1.6 c 1.7,0.2 3.2,0.5 4.6,1.1 l 2.1,-0.5 c 2.1,0.9 4.3,1.8 6.4,2.8 0.8,1.1 1.1,2.3 0.9,3.7 -3.3,5.2 -6.3,10.5 -8.9,16.2 z" id="path2189" style="fill: rgb(254, 201, 71);"/>
        <g id="g2195" transform="matrix(3.1683839,0,0,3.1683839,37.709193,210.93213)">
          <g id="g2193" transform="translate(116.125,244)">
            <path id="path2191" class="st1" d="m -14,-263.8 c -0.7,-0.3 -1.4,-0.6 -2,-0.9 l -0.7,0.1 c -0.4,-0.2 -0.9,-0.3 -1.5,-0.4 l -0.2,-0.5 c -0.5,-0.3 -1.1,-0.5 -1.7,-0.6 -0.8,0.2 -1.6,0.5 -2.3,0.9 -0.9,1.4 -1.7,2.8 -2.3,4.4 -0.5,1.5 -0.9,3 -1.1,4.6 -0.1,0.8 0,1.5 0.3,2 0.3,0.3 0.6,0.5 1,0.5 l 0.1,0.8 c 0.1,0.4 0.4,0.7 0.9,0.9 0.5,0 0.9,0 1.2,-0.3 0.3,-0.3 0.4,-0.7 0.4,-1.2 0.3,0.2 0.7,0.3 1.1,0.3 v 0.2 l 0.8,0.7 c 0.4,0.1 0.8,0 1.2,-0.2 0.8,-1.7 1.5,-3.5 2.3,-5.2 0.8,-1.8 1.8,-3.5 2.8,-5.1 0.1,-0.3 0,-0.7 -0.3,-1 z m -26,6.5 c -0.1,-1.2 -0.3,-2.4 -0.4,-3.6 l 0.1,-1.5 c 0.1,-0.7 0,-1.3 -0.2,-1.9 -0.5,-0.5 -1.1,-0.7 -1.8,-0.6 l -0.9,0.3 -0.4,0.7 c -0.6,0 -1.1,-0.2 -1.5,-0.5 -0.9,0.5 -1.9,0.9 -3,1.3 -0.5,0.9 -0.8,1.8 -0.9,2.8 -0.1,1 -0.2,2 -0.2,3 l 0.1,0.3 v 3 c 0,0.9 0.2,1.8 0.5,2.5 0.6,0.4 1.4,0.6 2.2,0.6 0.6,0 1.1,-0.2 1.7,-0.4 0.3,-0.3 0.5,-0.7 0.4,-1.2 l 0.5,0.2 0.8,-0.1 0.7,0.1 c 0.6,0.1 1.1,-0.1 1.5,-0.6 l 0.2,0.1 0.9,-0.3 0.5,-0.8 c -0.5,-1.1 -0.7,-2.2 -0.8,-3.4 z m -14.5,0.4 c 0,-0.4 -0.1,-0.8 -0.3,-1.2 l -0.9,-0.4 -0.2,0.1 h -0.3 l -0.1,-0.2 -0.9,-0.5 -0.8,0.3 h -0.2 v -0.3 c -0.3,-0.4 -0.7,-0.8 -1,-1.2 l -0.8,-0.5 -0.5,0.1 h -0.3 c -0.4,-0.3 -0.8,-0.7 -1,-1.1 l -0.5,-0.3 c -0.7,0 -1.3,0.2 -1.8,0.7 -0.5,0.4 -1,0.9 -1.4,1.3 -3.5,3.6 -6.6,7.5 -9.2,11.8 -2.6,4.3 -4.8,8.7 -6.7,13.3 -0.1,0.5 0,1 0.4,1.3 l -0.1,0.7 0.3,0.9 c 0.3,0.4 0.8,0.5 1.2,0.4 l -0.1,0.7 c 0,0.5 0.1,0.9 0.4,1.3 0.3,0.3 0.6,0.4 1,0.4 l 0.2,0.4 -0.1,0.3 c -0.1,0.5 0,1 0.2,1.4 0.4,0.5 0.9,0.7 1.4,0.5 v 0.7 c 0.4,0.5 0.8,1 1.2,1.6 l -0.3,1.4 c -0.1,0.5 0,1 0.3,1.3 l 0.7,0.4 c 0.4,0.1 0.7,0 1,-0.2 0.9,-2.7 1.9,-5.4 3,-8.1 1.1,-2.7 2.3,-5.4 3.6,-8 h 0.1 c -1,3.2 -1.7,6.5 -2.3,9.9 -0.5,3.3 -1,6.7 -1.4,10 0,0.5 0,1 0.1,1.5 l -0.1,1 c -0.1,1.1 0,2.1 0.4,3 0.5,0.3 1.1,0.5 1.7,0.5 0.4,0 0.8,-0.1 1.1,-0.4 l 0.3,-0.7 0.4,0.1 0.5,-0.1 h 0.2 l 0.3,0.9 0.7,0.4 c 0.4,0 0.8,0 1.1,-0.2 0.3,-0.3 0.5,-0.6 0.5,-1 0.6,0 1.1,-0.2 1.7,-0.4 0.5,-4.2 1,-8.4 1.7,-12.6 0.6,-4.2 1.7,-8.3 3.1,-12.4 0.1,-0.4 0,-0.8 -0.3,-1.2 l 0.3,-0.9 c 0.1,-0.4 -0.1,-0.8 -0.4,-1.2 -0.5,-0.3 -1,-0.5 -1.5,-0.5 l -0.7,0.1 h -0.1 l -0.3,-1 -0.7,-0.4 c -0.4,-0.1 -0.8,0 -1.1,0.2 -0.4,0.4 -0.7,0.9 -0.9,1.5 l -0.7,-0.3 H -64 c -0.8,0.4 -1.3,1.1 -1.6,2 l -0.4,0.1 h -0.2 c 1.6,-3 3.4,-6 5.3,-8.8 2.1,-3 4.2,-5.7 6.4,-8.4 z m 37.4,27.3 c -0.1,-0.8 -0.3,-1.5 -0.7,-2.1 -0.5,-0.5 -1.2,-0.7 -2,-0.5 l 0.1,-0.6 0.7,-0.3 0.4,-0.7 -0.1,-0.7 c -0.1,-0.4 -0.4,-0.7 -0.8,-0.8 -1.8,0 -3.6,0.2 -5.4,0.4 -1.7,0.2 -3.5,0.4 -5.2,0.6 h -0.1 c 0.1,-0.9 0.3,-1.7 0.4,-2.6 0.1,-0.9 0.3,-1.7 0.6,-2.6 1.2,-0.1 2.4,-0.3 3.7,-0.4 1.3,-0.1 2.5,-0.3 3.6,-0.6 l 0.4,-0.6 c 0.1,-0.6 -0.1,-1.1 -0.5,-1.4 v -0.3 l 0.8,-0.3 c 0.3,-0.6 0.6,-1.1 0.9,-1.7 0.1,-0.4 0,-0.8 -0.2,-1.2 l -0.9,-0.5 -0.4,0.1 H -22 l -0.3,-0.7 -0.7,-0.4 -3.6,0.2 h -0.6 l 1.2,-3.4 c 0.1,-0.4 0,-0.8 -0.2,-1.2 l -0.6,-0.4 0.1,-0.5 -0.1,-0.8 -0.8,-0.7 c -0.5,-0.1 -0.9,0 -1.2,0.3 h -0.1 l -0.1,-0.2 -0.8,-0.5 c -0.7,0.1 -1.4,0.4 -2.1,0.7 l -0.3,0.5 -0.4,-0.1 -1,0.3 c -0.8,1.1 -1.4,2.3 -2,3.5 -0.5,1.2 -1,2.4 -1.5,3.6 -2,0.3 -4.1,0.7 -6.1,1.1 -2,0.3 -4.1,0.8 -6.1,1.5 l -0.4,0.7 0.1,0.7 0.8,0.7 0.9,-0.1 h 0.2 l 0.2,0.6 0.9,0.4 -0.1,0.7 c -0.6,0 -1.1,0.1 -1.5,0.4 l -0.4,0.9 0.1,0.6 c 0.2,0.4 0.5,0.7 0.9,0.8 l 7.7,-1.1 h 0.7 l -1.1,5.2 c -1.9,0.3 -3.8,0.7 -5.7,1 -1.9,0.3 -3.7,0.7 -5.5,1.3 l -0.5,0.7 0.1,0.8 c 0.1,0.3 0.4,0.6 0.7,0.7 l -0.5,0.9 c 0,0.5 0.1,0.9 0.5,1.2 v 0.1 l -1.3,0.5 -0.4,0.9 0.1,0.5 c 0.1,0.4 0.4,0.7 0.8,0.8 0.4,0 0.8,0 1.2,-0.2 h 0.4 l 0.3,0.7 0.7,0.4 c 1.3,-0.3 2.5,-0.6 3.8,-0.8 1.3,-0.2 2.6,-0.5 3.8,-0.7 h 0.2 c -0.2,1.4 -0.4,2.8 -0.6,4.2 -0.2,1.4 -0.3,2.8 -0.4,4.2 0,0.9 0,1.8 0.2,2.6 0.2,0.8 0.5,1.5 0.9,2.3 l 0.6,0.3 c 0.4,0 0.8,-0.1 1.1,-0.3 l 0.7,-1.5 0.5,-0.1 c 0.3,0.2 0.6,0.5 0.9,0.7 l 0.8,-0.1 0.5,0.2 0.8,-0.1 h 0.1 c -0.1,0.4 0,0.7 0.3,0.9 0.3,0.3 0.7,0.4 1.2,0.4 v 0.3 c 0.1,0.4 0.4,0.7 0.9,0.9 h 0.7 c 0.4,-0.1 0.7,-0.4 0.9,-0.9 l -0.1,-1.4 v -5.8 c 0,-1.4 0.1,-2.7 0.2,-4.1 0.1,-1.4 0.2,-2.8 0.3,-4.1 2.1,-0.3 4.2,-0.6 6.2,-0.8 2.1,-0.2 4.2,-0.5 6.2,-0.9 l 0.1,-0.1 1,-0.5 c 0.4,-0.4 0.6,-1 0.5,-1.6 z" style="fill: rgb(124, 253, 160);"/>
          </g>
        </g>
        <g id="g2201" transform="matrix(3.1683839,0,0,3.1683839,37.709193,210.93213)">
          <g id="g2199" transform="translate(116.125,244)">
            <path id="path2197" class="st2" d="m -15.5,-265.8 c -0.7,-0.3 -1.4,-0.6 -2,-0.9 l -0.7,0.1 c -0.4,-0.2 -0.9,-0.3 -1.5,-0.4 l -0.2,-0.5 c -0.5,-0.3 -1.1,-0.5 -1.7,-0.6 -0.8,0.2 -1.6,0.5 -2.3,0.9 -0.9,1.4 -1.7,2.8 -2.3,4.4 -0.5,1.5 -0.9,3 -1.1,4.6 -0.1,0.8 0,1.5 0.3,2 0.3,0.3 0.6,0.5 1,0.5 l 0.1,0.8 c 0.1,0.4 0.4,0.7 0.9,0.9 0.5,0 0.9,0 1.2,-0.3 0.3,-0.3 0.4,-0.7 0.4,-1.2 0.3,0.2 0.7,0.3 1.1,0.3 v 0.2 l 0.8,0.7 c 0.4,0.1 0.8,0 1.2,-0.2 0.8,-1.7 1.5,-3.5 2.3,-5.2 0.8,-1.8 1.8,-3.5 2.8,-5.1 0.1,-0.3 0,-0.7 -0.3,-1 z m -26,6.5 c -0.1,-1.2 -0.3,-2.4 -0.4,-3.6 l 0.1,-1.5 c 0.1,-0.7 0,-1.3 -0.2,-1.9 -0.5,-0.5 -1.1,-0.7 -1.8,-0.6 l -0.9,0.3 -0.4,0.7 c -0.6,0 -1.1,-0.2 -1.5,-0.5 -0.9,0.5 -1.9,0.9 -3,1.3 -0.5,0.9 -0.8,1.8 -0.9,2.8 -0.1,1 -0.2,2 -0.2,3 l 0.1,0.3 v 3 c 0,0.9 0.2,1.8 0.5,2.5 0.6,0.4 1.4,0.6 2.2,0.6 0.6,0 1.1,-0.2 1.7,-0.4 0.3,-0.3 0.5,-0.7 0.4,-1.2 l 0.5,0.2 0.8,-0.1 0.7,0.1 c 0.6,0.1 1.1,-0.1 1.5,-0.6 l 0.2,0.1 0.9,-0.3 0.5,-0.8 c -0.5,-1.1 -0.7,-2.3 -0.8,-3.4 z m -14.5,0.4 c 0,-0.4 -0.1,-0.8 -0.3,-1.2 l -0.9,-0.4 -0.2,0.1 h -0.3 l -0.1,-0.2 -0.9,-0.5 -0.8,0.3 h -0.2 v -0.3 c -0.3,-0.4 -0.7,-0.8 -1,-1.2 l -0.8,-0.5 -0.5,0.1 h -0.3 c -0.4,-0.3 -0.8,-0.7 -1,-1.1 l -0.5,-0.3 c -0.7,0 -1.3,0.2 -1.8,0.7 -0.5,0.4 -1,0.9 -1.4,1.3 -3.5,3.6 -6.6,7.5 -9.2,11.8 -2.6,4.3 -4.8,8.7 -6.7,13.3 -0.1,0.5 0,1 0.4,1.3 l -0.1,0.7 0.3,0.9 c 0.3,0.4 0.8,0.5 1.2,0.4 l -0.1,0.7 c 0,0.5 0.1,0.9 0.4,1.3 0.3,0.3 0.6,0.4 1,0.4 l 0.2,0.4 -0.1,0.3 c -0.1,0.5 0,1 0.2,1.4 0.4,0.5 0.9,0.7 1.4,0.5 v 0.7 c 0.4,0.5 0.8,1 1.2,1.6 l -0.3,1.4 c -0.1,0.5 0,1 0.3,1.3 l 0.7,0.4 c 0.4,0.1 0.7,0 1,-0.2 0.9,-2.7 1.9,-5.4 3,-8.1 1.1,-2.7 2.3,-5.4 3.6,-8 h 0.1 c -1,3.2 -1.7,6.5 -2.3,9.9 -0.5,3.3 -1,6.7 -1.4,10 0,0.5 0,1 0.1,1.5 l -0.1,1 c -0.1,1.1 0,2.1 0.4,3 0.5,0.3 1.1,0.5 1.7,0.5 0.4,0 0.8,-0.1 1.1,-0.4 l 0.3,-0.7 0.4,0.1 0.5,-0.1 h 0.2 l 0.3,0.9 0.7,0.4 c 0.4,0 0.8,0 1.1,-0.2 0.3,-0.3 0.5,-0.6 0.5,-1 0.6,0 1.1,-0.2 1.7,-0.4 0.5,-4.2 1,-8.4 1.7,-12.6 0.6,-4.2 1.7,-8.3 3.1,-12.4 0.1,-0.4 0,-0.8 -0.3,-1.2 l 0.3,-0.9 c 0.1,-0.4 -0.1,-0.8 -0.4,-1.2 -0.5,-0.3 -1,-0.5 -1.5,-0.5 l -0.7,0.1 h -0.1 l -0.3,-1 -0.7,-0.4 c -0.4,-0.1 -0.8,0 -1.1,0.2 -0.4,0.4 -0.7,0.9 -0.9,1.5 l -0.7,-0.3 h -0.6 c -0.8,0.4 -1.3,1.1 -1.6,2 l -0.4,0.1 h -0.2 c 1.6,-3 3.4,-6 5.3,-8.8 2.1,-3 4.2,-5.7 6.4,-8.4 z m 37.4,27.3 c -0.1,-0.8 -0.3,-1.5 -0.7,-2.1 -0.5,-0.5 -1.2,-0.7 -2,-0.5 l 0.1,-0.6 0.7,-0.3 0.4,-0.7 -0.1,-0.7 c -0.1,-0.4 -0.4,-0.7 -0.8,-0.8 -1.8,0 -3.6,0.2 -5.4,0.4 -1.7,0.2 -3.5,0.4 -5.2,0.6 h -0.1 c 0.1,-0.9 0.3,-1.7 0.4,-2.6 0.1,-0.9 0.3,-1.7 0.6,-2.6 1.2,-0.1 2.4,-0.3 3.7,-0.4 1.3,-0.1 2.5,-0.3 3.6,-0.6 l 0.4,-0.6 c 0.1,-0.6 -0.1,-1.1 -0.5,-1.4 v -0.3 l 0.8,-0.3 c 0.3,-0.6 0.6,-1.1 0.9,-1.7 0.1,-0.4 0,-0.8 -0.2,-1.2 l -0.9,-0.5 -0.4,0.1 h -0.2 l -0.3,-0.7 -0.7,-0.4 -3.6,0.2 h -0.6 l 1.2,-3.4 c 0.1,-0.4 0,-0.8 -0.2,-1.2 l -0.6,-0.4 0.1,-0.5 -0.1,-0.8 -0.8,-0.7 c -0.5,-0.1 -0.9,0 -1.2,0.3 h -0.1 l -0.1,-0.2 -0.8,-0.5 c -0.7,0.1 -1.4,0.4 -2.1,0.7 l -0.3,0.5 -0.4,-0.1 -1,0.3 c -0.8,1.1 -1.4,2.3 -2,3.5 -0.5,1.2 -1,2.4 -1.5,3.6 -2,0.3 -4.1,0.7 -6.1,1.1 -2,0.3 -4.1,0.8 -6.1,1.5 l -0.4,0.7 0.1,0.7 0.8,0.7 0.9,-0.1 h 0.2 l 0.2,0.6 0.9,0.4 -0.1,0.7 c -0.6,0 -1.1,0.1 -1.5,0.4 l -0.4,0.9 0.1,0.6 c 0.2,0.4 0.5,0.7 0.9,0.8 l 7.7,-1.1 h 0.7 l -1.1,5.2 c -1.9,0.3 -3.8,0.7 -5.7,1 -1.9,0.3 -3.7,0.7 -5.5,1.3 l -0.5,0.7 0.1,0.8 c 0.1,0.3 0.4,0.6 0.7,0.7 l -0.5,0.9 c 0,0.5 0.1,0.9 0.5,1.2 v 0.1 l -1.3,0.5 -0.4,0.9 0.1,0.5 c 0.1,0.4 0.4,0.7 0.8,0.8 0.4,0 0.8,0 1.2,-0.2 h 0.4 l 0.3,0.7 0.7,0.4 c 1.3,-0.3 2.5,-0.6 3.8,-0.8 1.3,-0.2 2.6,-0.5 3.8,-0.7 h 0.2 c -0.2,1.4 -0.4,2.8 -0.6,4.2 -0.2,1.4 -0.3,2.8 -0.4,4.2 0,0.9 0,1.8 0.2,2.6 0.2,0.8 0.5,1.5 0.9,2.3 l 0.6,0.3 c 0.4,0 0.8,-0.1 1.1,-0.3 l 0.7,-1.5 0.5,-0.1 c 0.3,0.2 0.6,0.5 0.9,0.7 l 0.8,-0.1 0.5,0.2 0.8,-0.1 h 0.1 c -0.1,0.4 0,0.7 0.3,0.9 0.3,0.3 0.7,0.4 1.2,0.4 v 0.3 c 0.1,0.4 0.4,0.7 0.9,0.9 h 0.7 c 0.4,-0.1 0.7,-0.4 0.9,-0.9 l -0.1,-1.4 v -5.8 c 0,-1.4 0.1,-2.7 0.2,-4.1 0.1,-1.4 0.2,-2.8 0.3,-4.1 2.1,-0.3 4.2,-0.6 6.2,-0.8 2.1,-0.2 4.2,-0.5 6.2,-0.9 l 0.1,-0.1 1,-0.5 c 0.4,-0.4 0.5,-1 0.5,-1.6 z" style="fill: rgb(141, 85, 250);"/>
          </g>
        </g>
        <path class="st0" d="M 347.8,126.7 C 321.7,100.6 287,86.2 250,86.2 c -37,0 -71.7,14.4 -97.8,40.5 -26.1,26.1 -40.5,60.8 -40.5,97.8 0,36.9 14.4,71.7 40.5,97.8 26.1,26.1 60.8,40.5 97.8,40.5 37,0 71.7,-14.4 97.8,-40.5 26.1,-26.1 40.5,-60.8 40.5,-97.8 0,-36.9 -14.5,-71.7 -40.5,-97.8 z M 245.3,153 c 0.5,-3.2 1.5,-6.2 3,-9 3.4,-1.2 6.5,-2.6 9.4,-4.1 1.4,1.1 3,1.6 4.8,1.6 l 1.4,-2.3 2.8,-0.9 c 2.3,-0.3 4.2,0.3 5.8,1.8 0.8,1.8 1,3.8 0.7,6 l -0.2,4.8 c 0.3,3.8 0.7,7.7 1.1,11.5 0.5,3.7 1,7.4 1.6,11 l -1.7,2.6 -2.8,0.9 -0.7,-0.2 c -1.2,1.5 -2.8,2.2 -4.6,1.8 l -2.1,-0.5 -2.5,0.2 -1.6,-0.7 c 0.3,1.5 -0.1,2.8 -1.1,3.9 -1.7,0.8 -3.5,1.2 -5.3,1.4 -2.6,0.2 -4.9,-0.5 -6.9,-1.8 -1.1,-2.5 -1.6,-5.1 -1.6,-8 v -9.7 l -0.2,-0.9 c 0.2,-3.2 0.4,-6.4 0.7,-9.4 z m -17.2,10.8 c -6.9,8.4 -13.5,17.2 -19.8,26.2 -6.1,9 -11.7,18.4 -16.8,28 h 0.7 l 1.4,-0.5 c 0.9,-2.8 2.6,-4.8 5.1,-6.2 h 1.8 l 2.3,0.9 c 0.6,-1.7 1.5,-3.2 2.8,-4.6 0.9,-0.6 2.1,-0.9 3.5,-0.7 l 2.1,1.4 0.9,3.2 h 0.5 l 2.1,-0.2 c 1.7,0.2 3.3,0.7 4.8,1.6 0.9,1.1 1.3,2.3 1.1,3.7 l -0.9,2.8 c 0.8,1.2 1.1,2.5 0.9,3.9 -4.6,12.9 -7.9,26 -9.9,39.3 -2,13.2 -3.8,26.4 -5.3,39.8 -1.7,0.8 -3.5,1.2 -5.3,1.4 0,1.2 -0.5,2.3 -1.6,3.2 -0.9,0.6 -2.1,0.8 -3.5,0.7 l -2.1,-1.4 -0.9,-2.8 h -0.7 l -1.6,0.2 -1.4,-0.5 -0.9,2.1 c -0.9,0.8 -2.1,1.1 -3.5,1.1 -2,0 -3.8,-0.5 -5.5,-1.6 -1.2,-2.9 -1.6,-6.1 -1.1,-9.7 l 0.2,-3.2 c -0.5,-1.5 -0.6,-3.1 -0.5,-4.8 1.2,-10.6 2.7,-21.1 4.4,-31.7 1.7,-10.6 4.1,-21 7.1,-31.3 H 188 c -4,8.3 -7.7,16.7 -11.3,25.3 -3.5,8.6 -6.7,17.2 -9.7,25.7 -0.9,0.6 -2,0.8 -3.2,0.7 l -2.1,-1.1 c -0.9,-1.1 -1.2,-2.5 -0.9,-4.1 l 0.9,-4.4 c -1.2,-1.8 -2.5,-3.5 -3.9,-5.1 V 259 c -1.8,0.5 -3.4,-0.1 -4.6,-1.6 -0.6,-1.2 -0.8,-2.7 -0.7,-4.4 l 0.2,-0.9 -0.7,-1.1 c -1.2,0.1 -2.3,-0.2 -3.2,-1.2 -0.8,-1.2 -1.2,-2.6 -1.2,-4.1 l 0.2,-2.1 c -1.5,0.3 -2.8,-0.1 -3.9,-1.4 l -0.9,-3 0.5,-2.1 c -1.1,-1.1 -1.5,-2.4 -1.2,-4.1 5.8,-14.7 12.9,-28.8 21.2,-42.3 8.4,-13.5 18.2,-25.9 29.2,-37.3 1.5,-1.4 3.1,-2.8 4.6,-4.1 1.7,-1.5 3.6,-2.3 5.8,-2.3 l 1.6,0.9 c 0.8,1.4 1.8,2.5 3.2,3.5 h 0.9 l 1.6,-0.2 2.5,1.6 c 1.1,1.1 2.1,2.3 3.2,3.7 v 0.9 h 0.7 l 2.5,-0.9 3,1.6 0.2,0.7 h 0.9 l 0.7,-0.2 2.8,1.4 c 1,1.2 1.3,2.4 1.2,3.8 z m 117.2,91.5 -3.2,1.6 -0.2,0.5 c -6.4,1.1 -13,2 -19.8,2.8 -6.6,0.6 -13.2,1.5 -19.8,2.5 -0.3,4.3 -0.6,8.7 -0.9,13.1 -0.3,4.3 -0.5,8.6 -0.7,12.9 V 307 l 0.2,4.4 c -0.5,1.4 -1.4,2.3 -2.8,2.8 h -2.3 c -1.4,-0.5 -2.3,-1.4 -2.8,-2.8 v -0.9 c -1.5,0.1 -2.8,-0.2 -3.9,-1.2 -0.8,-0.8 -1.1,-1.8 -0.9,-3 h -0.5 l -2.5,0.2 -1.6,-0.7 -2.5,0.2 c -1.1,-0.6 -2.1,-1.3 -3,-2.1 l -1.6,0.5 -2.3,4.8 c -0.9,0.8 -2.1,1.1 -3.4,0.9 l -1.8,-0.9 c -1.4,-2.3 -2.4,-4.7 -3,-7.1 -0.6,-2.6 -0.8,-5.4 -0.7,-8.3 0.3,-4.4 0.8,-8.9 1.4,-13.3 0.6,-4.4 1.2,-8.9 1.8,-13.3 h -0.7 c -4,0.8 -8,1.5 -12.2,2.3 -4.1,0.8 -8.2,1.6 -12.2,2.5 l -2.3,-1.1 -0.9,-2.1 H 239 c -1.1,0.6 -2.3,0.8 -3.7,0.7 -1.2,-0.5 -2.1,-1.3 -2.5,-2.5 l -0.2,-1.6 1.4,-2.8 4.1,-1.6 v -0.5 c -1.2,-1.1 -1.8,-2.4 -1.6,-3.9 l 1.6,-3 c -1.1,-0.3 -1.8,-1 -2.3,-2.1 l -0.2,-2.5 1.6,-2.3 c 5.7,-1.8 11.5,-3.2 17.5,-4.1 6.1,-1.1 12.2,-2.2 18.2,-3.2 l 3.4,-16.5 H 274 l -24.4,3.5 c -1.2,-0.5 -2.2,-1.3 -2.8,-2.5 l -0.2,-1.8 1.4,-2.8 c 1.4,-0.9 3,-1.4 4.8,-1.4 l 0.5,-2.1 -2.8,-1.4 -0.7,-1.8 h -0.7 l -2.8,0.2 -2.5,-2.3 -0.2,-2.3 1.4,-2.3 c 6.4,-2 12.9,-3.5 19.3,-4.6 6.4,-1.2 12.9,-2.4 19.3,-3.5 1.5,-4 3.1,-7.8 4.8,-11.5 1.7,-3.8 3.8,-7.5 6.2,-11 l 3.2,-0.9 1.1,0.2 0.9,-1.6 c 2.1,-1.1 4.4,-1.8 6.7,-2.3 l 2.5,1.6 0.2,0.7 h 0.5 c 1.1,-0.9 2.4,-1.2 3.9,-0.9 l 2.5,2.3 0.2,2.5 -0.5,1.6 1.8,1.2 c 0.6,1.1 0.8,2.3 0.7,3.7 l -3.7,10.8 h 1.8 l 11.5,-0.7 2.1,1.4 0.9,2.3 h 0.7 l 1.1,-0.2 2.8,1.6 c 0.6,1.1 0.8,2.3 0.7,3.7 -0.9,1.7 -1.8,3.5 -2.8,5.3 l -2.5,0.9 v 0.9 c 1.4,1.2 1.9,2.8 1.6,4.6 l -1.1,1.8 c -3.7,0.9 -7.5,1.5 -11.5,1.8 -4,0.3 -7.9,0.7 -11.7,1.1 -0.8,2.8 -1.4,5.5 -1.8,8.3 -0.5,2.8 -0.9,5.5 -1.4,8.3 h 0.5 c 5.5,-0.6 11,-1.2 16.5,-1.8 5.7,-0.6 11.3,-1 17,-1.1 1.2,0.5 2.1,1.3 2.5,2.5 l 0.2,2.1 -1.4,2.3 -2.3,0.9 -0.2,1.8 c 2.5,-0.5 4.5,0.1 6.2,1.6 1.4,2 2.1,4.2 2.3,6.7 0.5,1.9 0.1,3.6 -1,5 z m 3.2,-93.8 c -2.4,5.5 -4.9,11 -7.4,16.5 -1.1,0.6 -2.3,0.9 -3.7,0.7 l -2.5,-2.3 v -0.7 c -1.2,0 -2.4,-0.3 -3.4,-0.9 0.1,1.5 -0.2,2.8 -1.2,3.9 -1.1,0.8 -2.4,1.1 -3.9,0.9 -1.4,-0.5 -2.3,-1.4 -2.8,-2.8 l -0.2,-2.5 c -1.2,0 -2.3,-0.5 -3.2,-1.6 -0.9,-1.8 -1.2,-4 -0.9,-6.4 0.6,-5.1 1.8,-10 3.4,-14.7 1.8,-4.9 4.2,-9.5 7.1,-13.8 2.3,-1.4 4.8,-2.4 7.4,-3 2,0.2 3.8,0.8 5.5,1.8 l 0.7,1.6 c 1.7,0.2 3.2,0.5 4.6,1.1 l 2.1,-0.5 c 2.1,0.9 4.3,1.8 6.4,2.8 0.8,1.1 1.1,2.3 0.9,3.7 -3.3,5.2 -6.3,10.5 -8.9,16.2 z" id="path2203" style="fill: rgb(254, 201, 71);"/>
        <g id="g2209" transform="matrix(3.1683839,0,0,3.1683839,37.709193,210.93213)">
          <g id="g2207" transform="translate(116.125,244)">
            <path id="path2205" class="st1" d="m -14,-263.8 c -0.7,-0.3 -1.4,-0.6 -2,-0.9 l -0.7,0.1 c -0.4,-0.2 -0.9,-0.3 -1.5,-0.4 l -0.2,-0.5 c -0.5,-0.3 -1.1,-0.5 -1.7,-0.6 -0.8,0.2 -1.6,0.5 -2.3,0.9 -0.9,1.4 -1.7,2.8 -2.3,4.4 -0.5,1.5 -0.9,3 -1.1,4.6 -0.1,0.8 0,1.5 0.3,2 0.3,0.3 0.6,0.5 1,0.5 l 0.1,0.8 c 0.1,0.4 0.4,0.7 0.9,0.9 0.5,0 0.9,0 1.2,-0.3 0.3,-0.3 0.4,-0.7 0.4,-1.2 0.3,0.2 0.7,0.3 1.1,0.3 v 0.2 l 0.8,0.7 c 0.4,0.1 0.8,0 1.2,-0.2 0.8,-1.7 1.5,-3.5 2.3,-5.2 0.8,-1.8 1.8,-3.5 2.8,-5.1 0.1,-0.3 0,-0.7 -0.3,-1 z m -26,6.5 c -0.1,-1.2 -0.3,-2.4 -0.4,-3.6 l 0.1,-1.5 c 0.1,-0.7 0,-1.3 -0.2,-1.9 -0.5,-0.5 -1.1,-0.7 -1.8,-0.6 l -0.9,0.3 -0.4,0.7 c -0.6,0 -1.1,-0.2 -1.5,-0.5 -0.9,0.5 -1.9,0.9 -3,1.3 -0.5,0.9 -0.8,1.8 -0.9,2.8 -0.1,1 -0.2,2 -0.2,3 l 0.1,0.3 v 3 c 0,0.9 0.2,1.8 0.5,2.5 0.6,0.4 1.4,0.6 2.2,0.6 0.6,0 1.1,-0.2 1.7,-0.4 0.3,-0.3 0.5,-0.7 0.4,-1.2 l 0.5,0.2 0.8,-0.1 0.7,0.1 c 0.6,0.1 1.1,-0.1 1.5,-0.6 l 0.2,0.1 0.9,-0.3 0.5,-0.8 c -0.5,-1.1 -0.7,-2.2 -0.8,-3.4 z m -14.5,0.4 c 0,-0.4 -0.1,-0.8 -0.3,-1.2 l -0.9,-0.4 -0.2,0.1 h -0.3 l -0.1,-0.2 -0.9,-0.5 -0.8,0.3 h -0.2 v -0.3 c -0.3,-0.4 -0.7,-0.8 -1,-1.2 l -0.8,-0.5 -0.5,0.1 h -0.3 c -0.4,-0.3 -0.8,-0.7 -1,-1.1 l -0.5,-0.3 c -0.7,0 -1.3,0.2 -1.8,0.7 -0.5,0.4 -1,0.9 -1.4,1.3 -3.5,3.6 -6.6,7.5 -9.2,11.8 -2.6,4.3 -4.8,8.7 -6.7,13.3 -0.1,0.5 0,1 0.4,1.3 l -0.1,0.7 0.3,0.9 c 0.3,0.4 0.8,0.5 1.2,0.4 l -0.1,0.7 c 0,0.5 0.1,0.9 0.4,1.3 0.3,0.3 0.6,0.4 1,0.4 l 0.2,0.4 -0.1,0.3 c -0.1,0.5 0,1 0.2,1.4 0.4,0.5 0.9,0.7 1.4,0.5 v 0.7 c 0.4,0.5 0.8,1 1.2,1.6 l -0.3,1.4 c -0.1,0.5 0,1 0.3,1.3 l 0.7,0.4 c 0.4,0.1 0.7,0 1,-0.2 0.9,-2.7 1.9,-5.4 3,-8.1 1.1,-2.7 2.3,-5.4 3.6,-8 h 0.1 c -1,3.2 -1.7,6.5 -2.3,9.9 -0.5,3.3 -1,6.7 -1.4,10 0,0.5 0,1 0.1,1.5 l -0.1,1 c -0.1,1.1 0,2.1 0.4,3 0.5,0.3 1.1,0.5 1.7,0.5 0.4,0 0.8,-0.1 1.1,-0.4 l 0.3,-0.7 0.4,0.1 0.5,-0.1 h 0.2 l 0.3,0.9 0.7,0.4 c 0.4,0 0.8,0 1.1,-0.2 0.3,-0.3 0.5,-0.6 0.5,-1 0.6,0 1.1,-0.2 1.7,-0.4 0.5,-4.2 1,-8.4 1.7,-12.6 0.6,-4.2 1.7,-8.3 3.1,-12.4 0.1,-0.4 0,-0.8 -0.3,-1.2 l 0.3,-0.9 c 0.1,-0.4 -0.1,-0.8 -0.4,-1.2 -0.5,-0.3 -1,-0.5 -1.5,-0.5 l -0.7,0.1 h -0.1 l -0.3,-1 -0.7,-0.4 c -0.4,-0.1 -0.8,0 -1.1,0.2 -0.4,0.4 -0.7,0.9 -0.9,1.5 l -0.7,-0.3 H -64 c -0.8,0.4 -1.3,1.1 -1.6,2 l -0.4,0.1 h -0.2 c 1.6,-3 3.4,-6 5.3,-8.8 2.1,-3 4.2,-5.7 6.4,-8.4 z m 37.4,27.3 c -0.1,-0.8 -0.3,-1.5 -0.7,-2.1 -0.5,-0.5 -1.2,-0.7 -2,-0.5 l 0.1,-0.6 0.7,-0.3 0.4,-0.7 -0.1,-0.7 c -0.1,-0.4 -0.4,-0.7 -0.8,-0.8 -1.8,0 -3.6,0.2 -5.4,0.4 -1.7,0.2 -3.5,0.4 -5.2,0.6 h -0.1 c 0.1,-0.9 0.3,-1.7 0.4,-2.6 0.1,-0.9 0.3,-1.7 0.6,-2.6 1.2,-0.1 2.4,-0.3 3.7,-0.4 1.3,-0.1 2.5,-0.3 3.6,-0.6 l 0.4,-0.6 c 0.1,-0.6 -0.1,-1.1 -0.5,-1.4 v -0.3 l 0.8,-0.3 c 0.3,-0.6 0.6,-1.1 0.9,-1.7 0.1,-0.4 0,-0.8 -0.2,-1.2 l -0.9,-0.5 -0.4,0.1 H -22 l -0.3,-0.7 -0.7,-0.4 -3.6,0.2 h -0.6 l 1.2,-3.4 c 0.1,-0.4 0,-0.8 -0.2,-1.2 l -0.6,-0.4 0.1,-0.5 -0.1,-0.8 -0.8,-0.7 c -0.5,-0.1 -0.9,0 -1.2,0.3 h -0.1 l -0.1,-0.2 -0.8,-0.5 c -0.7,0.1 -1.4,0.4 -2.1,0.7 l -0.3,0.5 -0.4,-0.1 -1,0.3 c -0.8,1.1 -1.4,2.3 -2,3.5 -0.5,1.2 -1,2.4 -1.5,3.6 -2,0.3 -4.1,0.7 -6.1,1.1 -2,0.3 -4.1,0.8 -6.1,1.5 l -0.4,0.7 0.1,0.7 0.8,0.7 0.9,-0.1 h 0.2 l 0.2,0.6 0.9,0.4 -0.1,0.7 c -0.6,0 -1.1,0.1 -1.5,0.4 l -0.4,0.9 0.1,0.6 c 0.2,0.4 0.5,0.7 0.9,0.8 l 7.7,-1.1 h 0.7 l -1.1,5.2 c -1.9,0.3 -3.8,0.7 -5.7,1 -1.9,0.3 -3.7,0.7 -5.5,1.3 l -0.5,0.7 0.1,0.8 c 0.1,0.3 0.4,0.6 0.7,0.7 l -0.5,0.9 c 0,0.5 0.1,0.9 0.5,1.2 v 0.1 l -1.3,0.5 -0.4,0.9 0.1,0.5 c 0.1,0.4 0.4,0.7 0.8,0.8 0.4,0 0.8,0 1.2,-0.2 h 0.4 l 0.3,0.7 0.7,0.4 c 1.3,-0.3 2.5,-0.6 3.8,-0.8 1.3,-0.2 2.6,-0.5 3.8,-0.7 h 0.2 c -0.2,1.4 -0.4,2.8 -0.6,4.2 -0.2,1.4 -0.3,2.8 -0.4,4.2 0,0.9 0,1.8 0.2,2.6 0.2,0.8 0.5,1.5 0.9,2.3 l 0.6,0.3 c 0.4,0 0.8,-0.1 1.1,-0.3 l 0.7,-1.5 0.5,-0.1 c 0.3,0.2 0.6,0.5 0.9,0.7 l 0.8,-0.1 0.5,0.2 0.8,-0.1 h 0.1 c -0.1,0.4 0,0.7 0.3,0.9 0.3,0.3 0.7,0.4 1.2,0.4 v 0.3 c 0.1,0.4 0.4,0.7 0.9,0.9 h 0.7 c 0.4,-0.1 0.7,-0.4 0.9,-0.9 l -0.1,-1.4 v -5.8 c 0,-1.4 0.1,-2.7 0.2,-4.1 0.1,-1.4 0.2,-2.8 0.3,-4.1 2.1,-0.3 4.2,-0.6 6.2,-0.8 2.1,-0.2 4.2,-0.5 6.2,-0.9 l 0.1,-0.1 1,-0.5 c 0.4,-0.4 0.6,-1 0.5,-1.6 z" style="fill: rgb(124, 253, 160);"/>
          </g>
        </g>
        <g id="g2215" transform="matrix(3.1683839,0,0,3.1683839,37.709193,210.93213)">
          <g id="g2213" transform="translate(116.125,244)">
            <path id="path2211" class="st2" d="m -15.5,-265.8 c -0.7,-0.3 -1.4,-0.6 -2,-0.9 l -0.7,0.1 c -0.4,-0.2 -0.9,-0.3 -1.5,-0.4 l -0.2,-0.5 c -0.5,-0.3 -1.1,-0.5 -1.7,-0.6 -0.8,0.2 -1.6,0.5 -2.3,0.9 -0.9,1.4 -1.7,2.8 -2.3,4.4 -0.5,1.5 -0.9,3 -1.1,4.6 -0.1,0.8 0,1.5 0.3,2 0.3,0.3 0.6,0.5 1,0.5 l 0.1,0.8 c 0.1,0.4 0.4,0.7 0.9,0.9 0.5,0 0.9,0 1.2,-0.3 0.3,-0.3 0.4,-0.7 0.4,-1.2 0.3,0.2 0.7,0.3 1.1,0.3 v 0.2 l 0.8,0.7 c 0.4,0.1 0.8,0 1.2,-0.2 0.8,-1.7 1.5,-3.5 2.3,-5.2 0.8,-1.8 1.8,-3.5 2.8,-5.1 0.1,-0.3 0,-0.7 -0.3,-1 z m -26,6.5 c -0.1,-1.2 -0.3,-2.4 -0.4,-3.6 l 0.1,-1.5 c 0.1,-0.7 0,-1.3 -0.2,-1.9 -0.5,-0.5 -1.1,-0.7 -1.8,-0.6 l -0.9,0.3 -0.4,0.7 c -0.6,0 -1.1,-0.2 -1.5,-0.5 -0.9,0.5 -1.9,0.9 -3,1.3 -0.5,0.9 -0.8,1.8 -0.9,2.8 -0.1,1 -0.2,2 -0.2,3 l 0.1,0.3 v 3 c 0,0.9 0.2,1.8 0.5,2.5 0.6,0.4 1.4,0.6 2.2,0.6 0.6,0 1.1,-0.2 1.7,-0.4 0.3,-0.3 0.5,-0.7 0.4,-1.2 l 0.5,0.2 0.8,-0.1 0.7,0.1 c 0.6,0.1 1.1,-0.1 1.5,-0.6 l 0.2,0.1 0.9,-0.3 0.5,-0.8 c -0.5,-1.1 -0.7,-2.3 -0.8,-3.4 z m -14.5,0.4 c 0,-0.4 -0.1,-0.8 -0.3,-1.2 l -0.9,-0.4 -0.2,0.1 h -0.3 l -0.1,-0.2 -0.9,-0.5 -0.8,0.3 h -0.2 v -0.3 c -0.3,-0.4 -0.7,-0.8 -1,-1.2 l -0.8,-0.5 -0.5,0.1 h -0.3 c -0.4,-0.3 -0.8,-0.7 -1,-1.1 l -0.5,-0.3 c -0.7,0 -1.3,0.2 -1.8,0.7 -0.5,0.4 -1,0.9 -1.4,1.3 -3.5,3.6 -6.6,7.5 -9.2,11.8 -2.6,4.3 -4.8,8.7 -6.7,13.3 -0.1,0.5 0,1 0.4,1.3 l -0.1,0.7 0.3,0.9 c 0.3,0.4 0.8,0.5 1.2,0.4 l -0.1,0.7 c 0,0.5 0.1,0.9 0.4,1.3 0.3,0.3 0.6,0.4 1,0.4 l 0.2,0.4 -0.1,0.3 c -0.1,0.5 0,1 0.2,1.4 0.4,0.5 0.9,0.7 1.4,0.5 v 0.7 c 0.4,0.5 0.8,1 1.2,1.6 l -0.3,1.4 c -0.1,0.5 0,1 0.3,1.3 l 0.7,0.4 c 0.4,0.1 0.7,0 1,-0.2 0.9,-2.7 1.9,-5.4 3,-8.1 1.1,-2.7 2.3,-5.4 3.6,-8 h 0.1 c -1,3.2 -1.7,6.5 -2.3,9.9 -0.5,3.3 -1,6.7 -1.4,10 0,0.5 0,1 0.1,1.5 l -0.1,1 c -0.1,1.1 0,2.1 0.4,3 0.5,0.3 1.1,0.5 1.7,0.5 0.4,0 0.8,-0.1 1.1,-0.4 l 0.3,-0.7 0.4,0.1 0.5,-0.1 h 0.2 l 0.3,0.9 0.7,0.4 c 0.4,0 0.8,0 1.1,-0.2 0.3,-0.3 0.5,-0.6 0.5,-1 0.6,0 1.1,-0.2 1.7,-0.4 0.5,-4.2 1,-8.4 1.7,-12.6 0.6,-4.2 1.7,-8.3 3.1,-12.4 0.1,-0.4 0,-0.8 -0.3,-1.2 l 0.3,-0.9 c 0.1,-0.4 -0.1,-0.8 -0.4,-1.2 -0.5,-0.3 -1,-0.5 -1.5,-0.5 l -0.7,0.1 h -0.1 l -0.3,-1 -0.7,-0.4 c -0.4,-0.1 -0.8,0 -1.1,0.2 -0.4,0.4 -0.7,0.9 -0.9,1.5 l -0.7,-0.3 h -0.6 c -0.8,0.4 -1.3,1.1 -1.6,2 l -0.4,0.1 h -0.2 c 1.6,-3 3.4,-6 5.3,-8.8 2.1,-3 4.2,-5.7 6.4,-8.4 z m 37.4,27.3 c -0.1,-0.8 -0.3,-1.5 -0.7,-2.1 -0.5,-0.5 -1.2,-0.7 -2,-0.5 l 0.1,-0.6 0.7,-0.3 0.4,-0.7 -0.1,-0.7 c -0.1,-0.4 -0.4,-0.7 -0.8,-0.8 -1.8,0 -3.6,0.2 -5.4,0.4 -1.7,0.2 -3.5,0.4 -5.2,0.6 h -0.1 c 0.1,-0.9 0.3,-1.7 0.4,-2.6 0.1,-0.9 0.3,-1.7 0.6,-2.6 1.2,-0.1 2.4,-0.3 3.7,-0.4 1.3,-0.1 2.5,-0.3 3.6,-0.6 l 0.4,-0.6 c 0.1,-0.6 -0.1,-1.1 -0.5,-1.4 v -0.3 l 0.8,-0.3 c 0.3,-0.6 0.6,-1.1 0.9,-1.7 0.1,-0.4 0,-0.8 -0.2,-1.2 l -0.9,-0.5 -0.4,0.1 h -0.2 l -0.3,-0.7 -0.7,-0.4 -3.6,0.2 h -0.6 l 1.2,-3.4 c 0.1,-0.4 0,-0.8 -0.2,-1.2 l -0.6,-0.4 0.1,-0.5 -0.1,-0.8 -0.8,-0.7 c -0.5,-0.1 -0.9,0 -1.2,0.3 h -0.1 l -0.1,-0.2 -0.8,-0.5 c -0.7,0.1 -1.4,0.4 -2.1,0.7 l -0.3,0.5 -0.4,-0.1 -1,0.3 c -0.8,1.1 -1.4,2.3 -2,3.5 -0.5,1.2 -1,2.4 -1.5,3.6 -2,0.3 -4.1,0.7 -6.1,1.1 -2,0.3 -4.1,0.8 -6.1,1.5 l -0.4,0.7 0.1,0.7 0.8,0.7 0.9,-0.1 h 0.2 l 0.2,0.6 0.9,0.4 -0.1,0.7 c -0.6,0 -1.1,0.1 -1.5,0.4 l -0.4,0.9 0.1,0.6 c 0.2,0.4 0.5,0.7 0.9,0.8 l 7.7,-1.1 h 0.7 l -1.1,5.2 c -1.9,0.3 -3.8,0.7 -5.7,1 -1.9,0.3 -3.7,0.7 -5.5,1.3 l -0.5,0.7 0.1,0.8 c 0.1,0.3 0.4,0.6 0.7,0.7 l -0.5,0.9 c 0,0.5 0.1,0.9 0.5,1.2 v 0.1 l -1.3,0.5 -0.4,0.9 0.1,0.5 c 0.1,0.4 0.4,0.7 0.8,0.8 0.4,0 0.8,0 1.2,-0.2 h 0.4 l 0.3,0.7 0.7,0.4 c 1.3,-0.3 2.5,-0.6 3.8,-0.8 1.3,-0.2 2.6,-0.5 3.8,-0.7 h 0.2 c -0.2,1.4 -0.4,2.8 -0.6,4.2 -0.2,1.4 -0.3,2.8 -0.4,4.2 0,0.9 0,1.8 0.2,2.6 0.2,0.8 0.5,1.5 0.9,2.3 l 0.6,0.3 c 0.4,0 0.8,-0.1 1.1,-0.3 l 0.7,-1.5 0.5,-0.1 c 0.3,0.2 0.6,0.5 0.9,0.7 l 0.8,-0.1 0.5,0.2 0.8,-0.1 h 0.1 c -0.1,0.4 0,0.7 0.3,0.9 0.3,0.3 0.7,0.4 1.2,0.4 v 0.3 c 0.1,0.4 0.4,0.7 0.9,0.9 h 0.7 c 0.4,-0.1 0.7,-0.4 0.9,-0.9 l -0.1,-1.4 v -5.8 c 0,-1.4 0.1,-2.7 0.2,-4.1 0.1,-1.4 0.2,-2.8 0.3,-4.1 2.1,-0.3 4.2,-0.6 6.2,-0.8 2.1,-0.2 4.2,-0.5 6.2,-0.9 l 0.1,-0.1 1,-0.5 c 0.4,-0.4 0.5,-1 0.5,-1.6 z" style="fill: rgb(141, 85, 250);"/>
          </g>
        </g>
      </g>
    </g>
  </g>
</svg>